<?xml version="1.0" standalone="no"?>
<!DOCTYPE svg PUBLIC "-//W3C//DTD SVG 1.1//EN" "http://www.w3.org/Graphics/SVG/1.1/DTD/svg11.dtd" >
<svg>
<metadata>
Created by FontForge 20110222 at Thu Feb 13 04:47:12 2014
 By Orthosie Webhosting
Erstellt in Fontographer 3.5.1
</metadata>
<defs>
<font id="JuneRegular" horiz-adv-x="590" >
  <font-face 
    font-family="JuneRegular"
    font-weight="500"
    font-stretch="normal"
    units-per-em="1000"
    panose-1="2 0 6 3 0 0 0 0 0 0"
    ascent="800"
    descent="-200"
    x-height="544"
    cap-height="744"
    bbox="-111 -189 1282 960"
    underline-thickness="20"
    underline-position="-133"
    unicode-range="U+0020-20AC"
  />
<missing-glyph horiz-adv-x="500" 
d="M50 0v533h400v-533h-400zM100 50h300v433h-300v-433z" />
    <glyph glyph-name=".notdef" horiz-adv-x="500" 
d="M50 0v533h400v-533h-400zM100 50h300v433h-300v-433z" />
    <glyph glyph-name=".null" horiz-adv-x="0" 
 />
    <glyph glyph-name="nonmarkingreturn" horiz-adv-x="333" 
 />
    <glyph glyph-name="space" unicode=" " horiz-adv-x="259" 
 />
    <glyph glyph-name="exclam" unicode="!" horiz-adv-x="208" 
d="M144 239l-76 -14v519h76v-505zM156 47q0 -24 -13.5 -40t-36.5 -16t-36.5 16t-13.5 40t13.5 40t36.5 16t36.5 -16t13.5 -40z" />
    <glyph glyph-name="quotedbl" unicode="&#x22;" horiz-adv-x="383" 
d="M326 744l-7 -200h-66l-8 200h81zM146 744l-8 -200h-66l-7 200h81z" />
    <glyph glyph-name="numbersign" unicode="#" horiz-adv-x="706" 
d="M679 525l-11 -68h-137l-34 -179h142l-11 -69h-144l-40 -209h-76l41 209h-164l-43 -209h-78l43 209h-134l11 69h136l34 179h-141l11 68h144l42 219h76l-42 -219h163l42 219h75l-42 -219h137zM456 457h-165l-35 -179h166z" />
    <glyph glyph-name="dollar" unicode="$" 
d="M547 198q0 -102 -61.5 -151.5t-149.5 -52.5v-123h-72v124q-45 3 -84 15l-123 40l19 72l127 -41q50 -16 122 -16q64 0 105.5 28.5t41.5 91.5q0 24 -4 40t-27 37.5t-65 35.5l-180 61q-69 24 -105 71.5t-36 110.5q0 102 61 152.5t148 53.5v110h72v-112q45 -5 83 -17l117 -38
l-19 -70l-127 41q-53 16 -113 16q-64 0 -105.5 -29t-41.5 -93q0 -44 18.5 -71.5t76.5 -46.5l180 -62q142 -48 142 -177z" />
    <glyph glyph-name="percent" unicode="%" horiz-adv-x="901" 
d="M862 177q0 -85 -50.5 -140t-134.5 -55t-133.5 55t-49.5 140q0 84 51 139t134 55q84 0 133.5 -55t49.5 -139zM789 748l-601 -752h-82l602 752h81zM408 570q0 -85 -50.5 -140t-134.5 -55t-133.5 55t-49.5 140q0 84 51 139t134 55q84 0 133.5 -55t49.5 -139zM795 177
q0 62 -31.5 100t-86.5 38t-85 -38t-30 -100t31 -101t86 -39q56 0 86 38.5t30 101.5zM341 570q0 62 -31.5 100t-86.5 38t-85 -38t-30 -100t31 -101t86 -39q56 0 86 38.5t30 101.5z" />
    <glyph glyph-name="ampersand" unicode="&#x26;" horiz-adv-x="656" 
d="M632 0h-94l-50 59q-82 -71 -201 -71t-179 55t-60 139q0 127 106 186l34 19q-49 53 -72 94t-23 96q0 87 61 133t153 46q90 0 144.5 -43t54.5 -122q0 -130 -115 -184l-87 -41l183 -205q21 48 21 104v149h72v-150q0 -93 -41 -155zM436 590q0 44 -33.5 73.5t-95.5 29.5
q-70 0 -106 -31.5t-36 -84.5q0 -39 20.5 -72t74.5 -90l94 45q82 39 82 130zM442 109l-209 228l-35 -21q-74 -45 -74 -132q0 -55 39 -92.5t124 -37.5q91 0 155 55z" />
    <glyph glyph-name="quotesingle" unicode="'" horiz-adv-x="208" 
d="M149 744l-8 -200h-70l-8 200h86z" />
    <glyph glyph-name="parenleft" unicode="(" horiz-adv-x="277" 
d="M72 77v539q0 71 40.5 111t114.5 40h32v-65h-32q-39 0 -59.5 -22.5t-20.5 -63.5v-539q0 -41 20.5 -63.5t59.5 -22.5h32v-65h-32q-68 0 -111.5 41t-43.5 110z" />
    <glyph glyph-name="parenright" unicode=")" horiz-adv-x="277" 
d="M209 77q0 -69 -43.5 -110t-111.5 -41h-32v65h32q39 0 59.5 22.5t20.5 63.5v539q0 41 -20.5 63.5t-59.5 22.5h-32v65h32q74 0 114.5 -40t40.5 -111v-539z" />
    <glyph glyph-name="asterisk" unicode="*" horiz-adv-x="551" 
d="M525 531l-201 -47l134 -160l-74 -53l-108 181l-108 -180l-74 53l135 160l-202 47l27 84l193 -79l-17 207h92l-17 -207l193 78z" />
    <glyph glyph-name="plus" unicode="+" horiz-adv-x="551" 
d="M518 259h-202v-212h-73v212h-198v71h198v210h73v-210h202v-71z" />
    <glyph glyph-name="comma" unicode="," horiz-adv-x="208" 
d="M161 85l-40 -145q-4 -17 -17.5 -25.5t-31.5 -4.5q-36 8 -26 49l38 145z" />
    <glyph glyph-name="hyphen" unicode="-" horiz-adv-x="374" 
d="M340 304h-293v75h293v-75z" />
    <glyph glyph-name="period" unicode="." horiz-adv-x="208" 
d="M155 47q0 -24 -13.5 -40t-36.5 -16t-36.5 16t-13.5 40t13.5 40t36.5 16t36.5 -16t13.5 -40z" />
    <glyph glyph-name="slash" unicode="/" horiz-adv-x="410" 
d="M399 744l-311 -744h-77l313 744h75z" />
    <glyph glyph-name="zero" unicode="0" 
d="M526 259q0 -123 -60 -196.5t-173 -73.5q-112 0 -169 74t-57 199v221q0 123 60 196.5t173 73.5q112 0 169 -74t57 -199v-221zM454 259v224q0 203 -158 203q-156 0 -156 -203v-224q0 -204 157 -204t157 204z" />
    <glyph glyph-name="one" unicode="1" 
d="M538 0h-465v69h224v605h-79q-77 0 -113 -18l-19 67q38 21 128 21h90q34 0 53.5 -18.5t19.5 -49.5v-607h161v-69z" />
    <glyph glyph-name="two" unicode="2" 
d="M523 545q0 -55 -25 -108.5t-94 -120.5l-257 -250h373v-66h-412q-35 0 -45.5 34.5t17.5 62.5l268 265q58 57 80 96t22 90q0 131 -144 131q-60 0 -120 -17l-112 -34l-20 70l101 31q75 22 152 22q94 0 155 -49.5t61 -156.5z" />
    <glyph glyph-name="three" unicode="3" 
d="M540 189q0 -86 -63.5 -141.5t-167.5 -55.5q-73 0 -125 15l-133 38l16 71l135 -40q52 -16 107 -16q79 0 118 34.5t39 89.5q0 43 -23 81l-25 43q-19 34 -60 34h-126v66h152l36 69q3 8 9 20.5t9 20t5.5 21.5t2.5 31q0 52 -35 81.5t-104 29.5q-49 0 -92 -12l-135 -37l-16 68
l132 37q51 14 112 14q100 0 156 -47t56 -134q0 -23 -4.5 -43t-9 -30.5t-17.5 -38.5l-43 -76q22 -12 44 -53l23 -44q27 -51 27 -96z" />
    <glyph glyph-name="four" unicode="4" 
d="M560 140h-77v-140h-73v140h-318q-36 0 -47.5 31t10.5 64l316 481q18 27 45 32.5t47 -10.5t20 -45v-487h77v-66zM410 206v440l-287 -440h287z" />
    <glyph glyph-name="five" unicode="5" 
d="M542 235q0 -105 -68.5 -174t-184.5 -69q-52 0 -102 14l-122 34l16 71l127 -37q45 -13 83 -13q89 0 133.5 48.5t44.5 125.5q0 177 -180 177q-50 0 -98 -12l-100 -23v367h418v-72h-350v-212l43 10q46 11 100 11q113 0 176.5 -62.5t63.5 -183.5z" />
    <glyph glyph-name="six" unicode="6" 
d="M543 239q0 -108 -62 -176.5t-178 -68.5q-113 0 -176.5 71t-63.5 185v256q0 108 61.5 176t170.5 68q61 0 106 -13l131 -40l-20 -69l-130 40q-34 11 -82 11q-81 0 -122 -45.5t-41 -127.5v-38l124 13q140 15 211 -55.5t71 -186.5zM468 239q0 191 -201 174l-130 -11v-148
q0 -89 43 -141t127 -52q78 0 119.5 48t41.5 130z" />
    <glyph glyph-name="seven" unicode="7" 
d="M538 654l-273 -655l-81 -1l285 678h-403v68h431q34 0 45 -29t-4 -61z" />
    <glyph glyph-name="eight" unicode="8" 
d="M544 194q0 -90 -60.5 -147t-186.5 -57t-187.5 57t-61.5 147q0 61 37 117l55 84q-14 10 -26 34l-23 47q-19 39 -19 95q0 87 62 134t161 47q103 0 163 -46t60 -135q0 -59 -25 -105l-41 -75q16 -9 41 -50l20 -35q31 -53 31 -112zM445 571q0 53 -36.5 84t-113.5 31
q-76 0 -113 -31.5t-37 -83.5q0 -37 17 -75l19 -43q16 -36 58 -36h151l35 69q20 39 20 85zM471 192q0 48 -28 95l-18 30q-21 34 -59 34h-175l-40 -66q-28 -46 -28 -93q0 -56 41 -96.5t133 -40.5q96 0 135 39t39 98z" />
    <glyph glyph-name="nine" unicode="9" 
d="M530 238q0 -108 -61.5 -176t-170.5 -68q-61 0 -106 13l-131 40l20 69l130 -40q34 -11 82 -11q81 0 121.5 45.5t40.5 127.5v38l-123 -13q-140 -15 -211 55.5t-71 186.5q0 108 62 176.5t178 68.5q113 0 176.5 -71t63.5 -185v-256zM455 342v148q0 89 -42.5 141t-126.5 52
q-78 0 -119.5 -48t-41.5 -130q0 -191 201 -174z" />
    <glyph glyph-name="colon" unicode=":" horiz-adv-x="208" 
d="M155 47q0 -24 -13.5 -40t-36.5 -16t-36.5 16t-13.5 40t13.5 40t36.5 16t36.5 -16t13.5 -40zM155 481q0 -24 -13.5 -40t-36.5 -16t-36.5 16t-13.5 40t13.5 40t36.5 16t36.5 -16t13.5 -40z" />
    <glyph glyph-name="semicolon" unicode=";" horiz-adv-x="208" 
d="M169 481q0 -24 -13.5 -40t-36.5 -16t-36.5 16t-13.5 40t13.5 40t36.5 16t36.5 -16t13.5 -40zM161 85l-40 -145q-4 -17 -17.5 -25.5t-31.5 -4.5q-36 8 -26 49l38 145z" />
    <glyph glyph-name="less" unicode="&#x3c;" horiz-adv-x="551" 
d="M519 61l-456 182q-36 14 -36 51t36 52l456 183v-83l-407 -153l407 -152v-80z" />
    <glyph glyph-name="equal" unicode="=" horiz-adv-x="551" 
d="M520 345h-473v73h473v-73zM520 179h-473v73h473v-73z" />
    <glyph glyph-name="greater" unicode="&#x3e;" horiz-adv-x="551" 
d="M33 61v80l407 152l-407 153v83l456 -183q36 -15 36 -52t-36 -51z" />
    <glyph glyph-name="question" unicode="?" horiz-adv-x="457" 
d="M425 577q0 -28 -11 -66t-36 -64l-121 -127v-82l-71 -13v62q0 35 5.5 51.5t27.5 39.5l99 107q35 37 35 95q0 43 -32 70.5t-87 27.5q-56 0 -105 -13l-83 -22l-15 67l85 23q53 14 121 14q84 0 136 -45.5t52 -124.5zM273 47q0 -24 -14.5 -40t-37.5 -16t-37 16t-14 40t14 40.5
t37 16.5t37.5 -16.5t14.5 -40.5z" />
    <glyph glyph-name="at" unicode="@" horiz-adv-x="933" 
d="M849 406q0 -111 -59 -183t-138 -72q-30 0 -72 22q-16 8 -51 3l-58 -9q-105 -16 -157.5 42t-41.5 151q10 89 70.5 143.5t163.5 44.5l74 -7l4 35h63l-45 -346q27 -22 57 -22q47 0 86 55t39 144q0 126 -85.5 204t-212.5 78q-148 0 -239.5 -95t-91.5 -242q0 -71 27 -133.5
t76.5 -105t118.5 -59t153 4.5l91 23q67 17 110 -8l47 -28l-25 -48l-47 21q-30 14 -72 4l-91 -22q-104 -25 -188.5 -5t-143.5 72.5t-91 129t-32 163.5q0 172 112 282t286 110q157 0 260 -97.5t103 -249.5zM573 487l-79 6q-138 11 -157 -138q-8 -66 23.5 -105.5t105.5 -28.5
l73 11z" />
    <glyph glyph-name="A" unicode="A" horiz-adv-x="649" 
d="M637 0h-83l-59 168h-341l-59 -168h-81l254 709q10 27 35 37.5t50.5 0t34.5 -36.5zM473 233l-146 438l-151 -438h297z" />
    <glyph glyph-name="B" unicode="B" horiz-adv-x="655" 
d="M600 193q0 -87 -55.5 -140t-149.5 -53h-249q-34 0 -53.5 18.5t-19.5 49.5v608q0 31 19.5 49.5t53.5 18.5h222q197 0 197 -172q0 -67 -22 -114l-31 -70q21 -12 42 -53l25 -50q21 -42 21 -92zM491 572q0 54 -29 81t-95 27h-219v-268h301l25 65q17 45 17 95zM526 191
q0 42 -17 74l-26 49q-18 34 -59 34h-276v-283h246q67 0 99.5 34.5t32.5 91.5z" />
    <glyph glyph-name="C" unicode="C" horiz-adv-x="663" 
d="M615 45l-131 -40q-44 -13 -105 -13q-143 0 -235.5 106t-92.5 272q0 163 93 270.5t234 107.5q61 0 106 -13l131 -40l-20 -70l-130 40q-38 11 -89 11q-110 0 -178 -83t-68 -223q0 -139 70.5 -223.5t178.5 -84.5q48 0 87 11l129 40z" />
    <glyph glyph-name="D" unicode="D" horiz-adv-x="700" 
d="M648 370q0 -162 -90.5 -266t-234.5 -104h-177q-34 0 -53.5 18.5t-19.5 49.5v608q0 31 19.5 49.5t53.5 18.5h182q143 0 231.5 -105.5t88.5 -268.5zM571 370q0 135 -69 222.5t-189 87.5h-163v-614h170q118 0 184.5 83t66.5 221z" />
    <glyph glyph-name="E" unicode="E" horiz-adv-x="606" 
d="M554 0h-408q-34 0 -53.5 18.5t-19.5 49.5v608q0 31 19.5 49.5t53.5 18.5h405v-66h-401v-264h360v-66h-360v-282h404v-66z" />
    <glyph glyph-name="F" unicode="F" horiz-adv-x="581" 
d="M541 678h-391v-278h358v-66h-358v-334h-77v676q0 31 19.5 49.5t53.5 18.5h395v-66z" />
    <glyph glyph-name="G" unicode="G" horiz-adv-x="702" 
d="M646 694l-19 -69l-158 41q-39 11 -90 11q-112 0 -181 -82.5t-69 -224.5q0 -135 69 -222t187 -87q31 0 59 4l125 18v236h-184v66h187q33 0 52.5 -18.5t19.5 -49.5v-226q0 -62 -65 -73l-129 -20q-37 -5 -70 -5q-61 0 -118 23.5t-105 68t-77 118.5t-29 167q0 165 94.5 271.5
t235.5 106.5q63 0 106 -12z" />
    <glyph glyph-name="H" unicode="H" horiz-adv-x="684" 
d="M613 0h-76v347h-388v-347h-76v744h76v-331h388v331h76v-744z" />
    <glyph glyph-name="I" unicode="I" horiz-adv-x="232" 
d="M160 0h-80v744h80v-744z" />
    <glyph glyph-name="J" unicode="J" horiz-adv-x="362" 
d="M293 189q0 -119 -61.5 -162t-157.5 -26l-63 11l12 69l63 -11q25 -7 44.5 -4.5t33 5t23 13t15 19.5t8 25t3.5 29t1 32v555h79v-555z" />
    <glyph glyph-name="K" unicode="K" horiz-adv-x="639" 
d="M629 0h-81q-18 15 -38 61l-173 392l-112 -106q-29 -28 -41.5 -42.5t-24 -40.5t-11.5 -59v-205h-75v744h75v-391l366 391h103l-223 -234l187 -430q10 -23 22 -43t19 -29z" />
    <glyph glyph-name="L" unicode="L" horiz-adv-x="565" 
d="M524 0h-378q-34 0 -53.5 18.5t-19.5 49.5v676h78v-677h373v-67z" />
    <glyph glyph-name="M" unicode="M" horiz-adv-x="782" 
d="M713 0h-70v657l-198 -629q-7 -23 -31 -31.5t-47.5 0.5t-30.5 31l-194 619v-647h-69v693q0 24 17.5 39t39.5 17.5t44 -10t30 -38.5l189 -627l193 627q8 26 29 38.5t42.5 10t38.5 -17.5t17 -39v-693z" />
    <glyph glyph-name="N" unicode="N" horiz-adv-x="685" 
d="M627 53q0 -32 -20.5 -47.5t-47 -9t-41.5 30.5l-374 608v-635h-71v693q0 49 42.5 57t66.5 -31l374 -610v635h71v-691z" />
    <glyph glyph-name="O" unicode="O" horiz-adv-x="760" 
d="M714 370q0 -168 -94 -273t-240 -105q-144 0 -236.5 106t-92.5 272q0 165 94.5 271.5t239.5 106.5q144 0 236.5 -106t92.5 -272zM636 370q0 139 -70.5 225t-185.5 86t-183.5 -85.5t-68.5 -225.5t71 -226.5t186 -86.5q114 0 182.5 85.5t68.5 227.5z" />
    <glyph glyph-name="P" unicode="P" horiz-adv-x="581" 
d="M547 528q0 -93 -56.5 -154.5t-150.5 -61.5h-195v-312h-74v676q0 31 19.5 49.5t53.5 18.5h207q88 0 142 -62t54 -154zM477 529q0 65 -35 108t-95 43h-202v-303h195q66 0 101.5 42t35.5 110z" />
    <glyph glyph-name="Q" unicode="Q" horiz-adv-x="764" 
d="M713 370q0 -123 -53 -212.5t-142 -127.5q77 -24 148 -24h33v-64h-33q-65 0 -147 25t-133 25q-149 0 -242 105.5t-93 272.5q0 165 94.5 271.5t239.5 106.5q144 0 236 -106t92 -272zM636 370q0 138 -71 224.5t-185 86.5q-115 0 -183.5 -85.5t-68.5 -225.5t71 -227t186 -87
q114 0 182.5 86t68.5 228z" />
    <glyph glyph-name="R" unicode="R" horiz-adv-x="648" 
d="M621 0h-77q-18 14 -34 64l-59 180q-10 30 -24 46t-42 16h-238v-306h-76v676q0 31 19.5 49.5t53.5 18.5h227q197 0 197 -172q0 -80 -38 -146l-51 -87q27 -25 46 -86l53 -170q8 -24 18.5 -44.5t17.5 -29.5zM494 572q0 108 -124 108h-223v-309h269l51 92q27 49 27 109z" />
    <glyph glyph-name="S" unicode="S" horiz-adv-x="625" 
d="M581 198q0 -55 -20.5 -96t-55.5 -64.5t-75.5 -34.5t-84.5 -11q-95 0 -155 19l-130 40l20 72l135 -41q57 -17 130 -17q69 0 115 28.5t46 91.5q0 23 -5.5 39.5t-31 38t-70.5 35.5l-192 61q-73 24 -111.5 71.5t-38.5 110.5q0 55 20.5 96.5t55.5 65t75.5 35t84.5 11.5
q77 0 152 -22l124 -38l-20 -70l-135 41q-60 17 -120 17q-69 0 -115 -29t-46 -93q0 -43 21.5 -70.5t83.5 -47.5l192 -62q151 -48 151 -177z" />
    <glyph glyph-name="T" unicode="T" horiz-adv-x="611" 
d="M584 678h-238v-678h-78v678h-238v66h554v-66z" />
    <glyph glyph-name="U" unicode="U" horiz-adv-x="666" 
d="M601 264q0 -128 -71.5 -203t-194.5 -75q-122 0 -194 75.5t-72 202.5v480h76v-480q0 -99 50 -154t140 -55q92 0 141 54.5t49 154.5v480h76v-480z" />
    <glyph glyph-name="V" unicode="V" horiz-adv-x="588" 
d="M585 744l-235 -710q-13 -39 -55.5 -39t-55.5 39l-231 710h83l207 -659l207 659h80z" />
    <glyph glyph-name="W" unicode="W" horiz-adv-x="856" 
d="M812 744l-82 -710q-3 -27 -29 -39t-54 -2.5t-36 37.5l-180 640l-183 -640q-8 -27 -35 -36t-52.5 3t-28.5 38l-81 709h73l68 -658l187 625q7 24 30.5 33.5t47 0t30.5 -33.5l181 -626l72 659h72z" />
    <glyph glyph-name="X" unicode="X" horiz-adv-x="641" 
d="M624 0h-91l-206 322l-210 -322h-89l250 375l-247 369h92l207 -313l204 313h87l-243 -367z" />
    <glyph glyph-name="Y" unicode="Y" horiz-adv-x="641" 
d="M619 744l-252 -389v-355h-78v353l-258 391h88l211 -319l203 319h86z" />
    <glyph glyph-name="Z" unicode="Z" horiz-adv-x="622" 
d="M575 0h-470q-35 0 -47.5 32t8.5 60l421 586h-431v66h463q35 0 47.5 -32t-8.5 -60l-421 -586h438v-66z" />
    <glyph glyph-name="bracketleft" unicode="[" horiz-adv-x="277" 
d="M71 -74v841h187v-65h-112v-711h112v-65h-187z" />
    <glyph glyph-name="backslash" unicode="\" horiz-adv-x="410" 
d="M11 744h75l313 -744h-77z" />
    <glyph glyph-name="bracketright" unicode="]" horiz-adv-x="277" 
d="M209 -74h-187v65h112v711h-112v65h187v-841z" />
    <glyph glyph-name="asciicircum" unicode="^" horiz-adv-x="551" 
d="M510 43h-79l-157 412l-155 -412h-77l186 466q14 34 47.5 33.5t47.5 -33.5z" />
    <glyph glyph-name="underscore" unicode="_" horiz-adv-x="551" 
d="M560 -164h-573v67h573v-67z" />
    <glyph glyph-name="grave" unicode="`" horiz-adv-x="542" 
d="M366 726q22 -11 11 -38.5t-36 -17.5l-159 66l31 70z" />
    <glyph glyph-name="a" unicode="a" horiz-adv-x="585" 
d="M560 45l-31 -55l-48 24q-28 14 -71 7l-120 -21q-108 -19 -173.5 26.5t-65.5 124.5q0 85 60 123.5t155 38.5h161v54q0 114 -120 114q-56 0 -105 -13l-119 -31l-15 67l121 32q53 14 119 14q84 0 137 -45t53 -138v-288zM427 86v165h-162q-140 0 -140 -95q0 -54 43 -80.5
t118 -13.5z" />
    <glyph glyph-name="b" unicode="b" 
d="M546 272q0 -60 -18.5 -112t-53.5 -92t-93 -59.5t-131 -10.5l-111 14q-31 4 -48 22.5t-17 47.5v673l72 15v-239l108 14q140 18 216 -64t76 -209zM471 272q0 46 -12 84.5t-36 68.5t-66 44t-97 9l-114 -11v-391l114 -13q73 -9 122.5 20t69 77.5t19.5 111.5z" />
    <glyph glyph-name="c" unicode="c" horiz-adv-x="518" 
d="M486 509l-16 -67l-115 32q-27 8 -66 8q-81 0 -125.5 -58.5t-44.5 -151.5q0 -91 47.5 -151t126.5 -60q36 0 62 8l115 34l15 -67l-113 -32q-35 -10 -81 -10q-112 0 -180.5 79.5t-68.5 198.5q0 118 70 198t179 80q51 0 84 -10z" />
    <glyph glyph-name="d" unicode="d" 
d="M518 82q0 -29 -17 -47.5t-48 -22.5l-111 -14q-73 -9 -131 10.5t-93 59.5t-53.5 92t-18.5 112q0 127 76.5 209t215.5 64l108 -14v224l72 15v-688zM446 76v391l-114 11q-56 5 -98 -9t-66 -43.5t-35.5 -68t-11.5 -85.5q0 -63 19.5 -111.5t69 -77.5t122.5 -20z" />
    <glyph glyph-name="e" unicode="e" horiz-adv-x="580" 
d="M537 274q0 -34 -32 -34h-384q4 -81 53.5 -129.5t119.5 -48.5q53 0 101 13l119 32l15 -67l-121 -32q-52 -14 -116 -14q-112 0 -180.5 76.5t-68.5 200.5q0 128 73.5 204.5t176.5 76.5q113 0 180 -72t64 -206zM464 301q0 81 -43.5 134.5t-128.5 53.5q-74 0 -120 -52.5
t-51 -135.5h343z" />
    <glyph glyph-name="f" unicode="f" horiz-adv-x="371" 
d="M382 749l-12 -68l-61 11q-78 14 -102.5 -17t-24.5 -98v-43h173v-65h-173v-469h-73v469h-89v65h89v43q0 115 59.5 157.5t152.5 25.5z" />
    <glyph glyph-name="g" unicode="g" horiz-adv-x="639" 
d="M602 -18q0 -163 -298 -163q-38 0 -72 4t-78 16.5t-70.5 42t-26.5 74.5q0 39 33 84l62 83q18 24 18.5 43t-11 32.5t-29 30.5l-35 34t-30 46t-12.5 64q0 58 34.5 98.5t82 56.5t102.5 16h98q77 0 105 9l111 32l16 -64l-110 -33q51 -44 51 -117q0 -85 -64.5 -129.5
t-179.5 -44.5q-22 0 -40 1.5t-25 3.5l-8 1q11 -12 12.5 -33t-10.5 -41l-16 -25h230q160 0 160 -122zM472 370q0 118 -174 118q-173 0 -173 -116q0 -61 46 -91.5t127 -30.5q80 0 127 29.5t47 90.5zM532 -20q0 61 -100 61h-261l-21 -26q-21 -27 -21 -61q0 -41 52 -59.5
t131 -18.5q38 0 65 2t68 11t64 32t23 59z" />
    <glyph glyph-name="h" unicode="h" horiz-adv-x="570" 
d="M503 0h-72v353q0 143 -165 126l-119 -12v-467h-72v755l71 15v-238l114 13q66 8 115 -4.5t76 -41.5t39.5 -65.5t12.5 -81.5v-352z" />
    <glyph glyph-name="i" unicode="i" horiz-adv-x="226" 
d="M164 716q0 -24 -13.5 -40t-36.5 -16t-36.5 16t-13.5 40t13.5 40t36.5 16t36.5 -16t13.5 -40zM153 0h-77v544h77v-544z" />
    <glyph glyph-name="j" unicode="j" horiz-adv-x="233" 
d="M176 716q0 -24 -13.5 -40t-36.5 -16t-36.5 16t-13.5 40t13.5 40t36.5 16t36.5 -16t13.5 -40zM164 6q0 -114 -60 -157t-154 -26l-61 11l12 67l61 -11q78 -14 101.5 17t23.5 99v538h77v-538z" />
    <glyph glyph-name="k" unicode="k" horiz-adv-x="554" 
d="M532 0h-86l-147 323l-79 -66q-4 -3 -17.5 -14t-17 -14.5l-13 -13t-12.5 -16t-8 -17.5t-6.5 -23t-1.5 -27v-132h-73v755l73 15v-508l281 282h96l-164 -169z" />
    <glyph glyph-name="l" unicode="l" horiz-adv-x="226" 
d="M153 0h-75v755l75 16v-771z" />
    <glyph glyph-name="m" unicode="m" horiz-adv-x="861" 
d="M789 0h-72v354q0 63 -33.5 98t-111.5 24l-122 -20q18 -31 18 -102v-354h-71v354q0 144 -147 125l-104 -13v-466h-72v462q0 62 64 70l99 13q119 16 171 -29l153 28q98 18 163 -28t65 -162v-354z" />
    <glyph glyph-name="n" unicode="n" horiz-adv-x="570" 
d="M505 0h-73v353q0 143 -165 126l-119 -12v-467h-73v461q0 29 17 47.5t48 22.5l121 14q66 8 115 -4.5t76.5 -41.5t40 -65.5t12.5 -81.5v-352z" />
    <glyph glyph-name="o" unicode="o" horiz-adv-x="594" 
d="M550 272q0 -119 -70 -198.5t-184 -79.5t-182 79.5t-68 198.5t70 198.5t184 79.5t182 -79.5t68 -198.5zM475 272q0 93 -48 154t-131 61t-128.5 -60.5t-45.5 -154.5q0 -93 47.5 -154.5t130.5 -61.5t129 60.5t46 155.5z" />
    <glyph glyph-name="p" unicode="p" 
d="M544 271q0 -127 -76.5 -209t-215.5 -64l-108 14v-183l-72 -15v647q0 29 17 47.5t48 22.5l111 14q73 9 131 -10.5t93 -59.5t53.5 -92t18.5 -112zM469 271q0 63 -19.5 111.5t-69 77.5t-122.5 20l-114 -13v-391l114 -11q56 -5 98 9t66 43.5t35.5 68t11.5 85.5z" />
    <glyph glyph-name="q" unicode="q" 
d="M517 -171l-72 -15v198l-108 -14q-140 -18 -216 64t-76 209q0 60 18.5 112t53.5 92t93 59.5t131 10.5l111 -14q65 -8 65 -70v-632zM445 76v391l-114 13q-73 9 -122.5 -20t-69 -77.5t-19.5 -111.5q0 -46 12 -84.5t36 -68.5t66 -44t97 -9z" />
    <glyph glyph-name="r" unicode="r" horiz-adv-x="348" 
d="M343 539l-11 -69q-42 14 -114 4l-79 -12v-462h-74v461q0 62 64 71l83 12q86 13 131 -5z" />
    <glyph glyph-name="s" unicode="s" horiz-adv-x="545" 
d="M496 152q0 -79 -57.5 -119t-135.5 -40t-130 15l-107 30l17 68l114 -31q49 -14 106 -14q51 0 85.5 18.5t34.5 60.5q0 10 -2 17.5t-8.5 17.5t-24 19.5t-45.5 16.5l-158 43q-124 33 -124 136q0 79 57.5 119t135.5 40q76 0 130 -15l101 -29l-17 -68l-108 31q-43 13 -106 13
q-51 0 -85.5 -19t-34.5 -61q0 -11 2 -18.5t8.5 -19t24 -21.5t44.5 -17l158 -43q125 -34 125 -130z" />
    <glyph glyph-name="t" unicode="t" horiz-adv-x="421" 
d="M384 9l-61 -11q-93 -17 -152.5 25.5t-59.5 157.5v288h-89v65h89v137l73 15v-152h183v-65h-183v-288q0 -24 2.5 -41t10 -35.5t21.5 -27t37 -14t56 2.5l61 11z" />
    <glyph glyph-name="u" unicode="u" horiz-adv-x="570" 
d="M499 83q0 -29 -17 -47.5t-48 -22.5l-120 -14q-66 -8 -115 4.5t-76 41.5t-39.5 65.5t-12.5 81.5v352h73v-353q0 -143 164 -126l118 12v467h73v-461z" />
    <glyph glyph-name="v" unicode="v" horiz-adv-x="537" 
d="M518 544l-191 -515q-14 -39 -58.5 -39t-58.5 39l-182 515h82l161 -474l167 474h80z" />
    <glyph glyph-name="w" unicode="w" horiz-adv-x="807" 
d="M770 544l-111 -510q-9 -42 -53.5 -44t-58.5 40l-138 425l-145 -425q-9 -27 -34.5 -35.5t-49.5 3t-29 37.5l-101 509h77l87 -468l149 439q11 33 46.5 32.5t46.5 -32.5l148 -442l91 471h75z" />
    <glyph glyph-name="x" unicode="x" horiz-adv-x="548" 
d="M522 0h-90l-157 224l-157 -224h-87l199 273l-195 271h90l154 -217l146 217h88l-189 -265z" />
    <glyph glyph-name="y" unicode="y" horiz-adv-x="530" 
d="M514 544l-211 -626q-42 -123 -201 -95l-61 11l12 67l61 -11q25 -3 42.5 -4t31 5t21.5 11t14 14.5t8.5 16t4.5 15.5l7 27l-219 569h84l175 -478l149 478h82z" />
    <glyph glyph-name="z" unicode="z" horiz-adv-x="540" 
d="M487 0h-382q-34 0 -47 31t9 57l331 396h-343v60h375q34 0 47 -31t-9 -57l-327 -394h346v-62z" />
    <glyph glyph-name="braceleft" unicode="{" horiz-adv-x="271" 
d="M60 321v41q36 1 54 23.5t8 49.5l-35 103q-33 96 5.5 157.5t117.5 61.5h42v-67h-42q-41 0 -58 -35.5t2 -100.5l32 -104q10 -31 1.5 -62.5t-31.5 -45.5q23 -16 31.5 -47t-1.5 -62l-32 -104q-19 -65 -2 -100.5t58 -35.5h42v-67h-42q-79 0 -117.5 61.5t-5.5 157.5l35 103
q10 28 -8 50t-54 23z" />
    <glyph glyph-name="bar" unicode="|" horiz-adv-x="217" 
d="M143 -180h-68v952h68v-952z" />
    <glyph glyph-name="braceright" unicode="}" horiz-adv-x="271" 
d="M217 321q-36 -1 -54 -23t-8 -50l35 -103q33 -96 -5.5 -157.5t-117.5 -61.5h-42v67h42q41 0 58 35.5t-2 100.5l-32 104q-10 31 -1.5 62t31.5 47q-23 14 -31.5 45.5t1.5 62.5l32 104q19 65 2 100.5t-58 35.5h-42v67h42q79 0 117.5 -61.5t5.5 -157.5l-35 -103
q-10 -27 8 -49.5t54 -23.5v-41z" />
    <glyph glyph-name="asciitilde" unicode="~" horiz-adv-x="535" 
d="M518 334l-32 -47q-39 -57 -94 -69t-112 29l-67 53q-67 52 -114 -19l-33 -47l-51 40l33 47q40 57 95 68t110 -30l67 -53q33 -25 63 -18.5t52 39.5l32 47z" />
    <glyph glyph-name="uni0080" horiz-adv-x="649" 
d="M637 0h-83l-59 168h-341l-59 -168h-81l254 709q10 27 35 37.5t50.5 0t34.5 -36.5zM473 233l-146 438l-151 -438h297zM492 873q0 -23 -13.5 -39t-35.5 -16t-35.5 16t-13.5 39t13.5 39t35.5 16t35.5 -16t13.5 -39zM264 873q0 -23 -13.5 -39t-35.5 -16t-35.5 16t-13.5 39
t13.5 39t35.5 16t35.5 -16t13.5 -39z" />
    <glyph glyph-name="uni0081" horiz-adv-x="649" 
d="M637 0h-83l-59 168h-341l-59 -168h-81l254 709q-54 25 -54 91q0 46 30 74.5t77 28.5h12q48 0 78 -28.5t30 -74.5q0 -64 -53 -90zM391 800q0 25 -15 42t-43 17h-12q-25 0 -41 -17t-16 -42q0 -26 16 -43t41 -17h12q27 0 42.5 17t15.5 43zM473 233l-146 449l-151 -449h297z
" />
    <glyph glyph-name="uni0082" horiz-adv-x="663" 
d="M615 45l-131 -40q-44 -13 -105 -13q-143 0 -235.5 106t-92.5 272q0 163 93 270.5t234 107.5q61 0 106 -13l131 -40l-20 -70l-130 40q-38 11 -89 11q-110 0 -178 -83t-68 -223q0 -139 70.5 -223.5t178.5 -84.5q48 0 87 11l129 40zM457 -108q0 -35 -25 -58t-71 -23
q-23 0 -43 6l-44 14l13 42l41 -11q15 -4 32 -4q47 0 47 32q0 22 -21.5 27.5t-67.5 3.5l-4 7l41 80h42l-23 -50q37 -1 60 -17.5t23 -48.5z" />
    <glyph glyph-name="uni0083" horiz-adv-x="606" 
d="M554 0h-408q-34 0 -53.5 18.5t-19.5 49.5v608q0 31 19.5 49.5t53.5 18.5h405v-66h-401v-264h360v-66h-360v-282h404v-66zM235 866l153 80l31 -70l-159 -66q-25 -10 -36 17.5t11 38.5z" />
    <glyph glyph-name="uni0084" horiz-adv-x="685" 
d="M627 53q0 -32 -20.5 -47.5t-47 -9t-41.5 30.5l-374 608v-635h-71v693q0 49 42.5 57t66.5 -31l374 -610v635h71v-691zM569 907l-26 -45q-28 -47 -75 -58.5t-98 21.5l-57 41q-55 40 -93 -19l-26 -41l-47 31l26 42q31 51 77.5 60.5t95.5 -24.5l57 -40q28 -18 53 -12t41 33
l26 41z" />
    <glyph glyph-name="uni0085" unicode="&#x85;" horiz-adv-x="760" 
d="M714 370q0 -168 -94 -273t-240 -105q-144 0 -236.5 106t-92.5 272q0 165 94.5 271.5t239.5 106.5q144 0 236.5 -106t92.5 -272zM636 370q0 139 -70.5 225t-185.5 86t-183.5 -85.5t-68.5 -225.5t71 -226.5t186 -86.5q114 0 182.5 85.5t68.5 227.5zM545 873
q0 -23 -13.5 -39t-35.5 -16t-35.5 16t-13.5 39t13.5 39t35.5 16t35.5 -16t13.5 -39zM317 873q0 -23 -13.5 -39t-35.5 -16t-35.5 16t-13.5 39t13.5 39t35.5 16t35.5 -16t13.5 -39z" />
    <glyph glyph-name="uni0086" horiz-adv-x="666" 
d="M601 264q0 -128 -71.5 -203t-194.5 -75q-122 0 -194 75.5t-72 202.5v480h76v-480q0 -99 50 -154t140 -55q92 0 141 54.5t49 154.5v480h76v-480zM500 873q0 -23 -13.5 -39t-35.5 -16t-35.5 16t-13.5 39t13.5 39t35.5 16t35.5 -16t13.5 -39zM272 873q0 -23 -13.5 -39
t-35.5 -16t-35.5 16t-13.5 39t13.5 39t35.5 16t35.5 -16t13.5 -39z" />
    <glyph glyph-name="uni0087" horiz-adv-x="585" 
d="M560 45l-31 -55l-48 24q-28 14 -71 7l-120 -21q-108 -19 -173.5 26.5t-65.5 124.5q0 85 60 123.5t155 38.5h161v54q0 114 -120 114q-56 0 -105 -13l-119 -31l-15 67l121 32q53 14 119 14q84 0 137 -45t53 -138v-288zM427 86v165h-162q-140 0 -140 -95q0 -54 43 -80.5
t118 -13.5zM204 726l153 80l31 -70l-159 -66q-25 -10 -36 17.5t11 38.5z" />
    <glyph glyph-name="uni0088" horiz-adv-x="585" 
d="M560 45l-31 -55l-48 24q-28 14 -71 7l-120 -21q-108 -19 -173.5 26.5t-65.5 124.5q0 85 60 123.5t155 38.5h161v54q0 114 -120 114q-56 0 -105 -13l-119 -31l-15 67l121 32q53 14 119 14q84 0 137 -45t53 -138v-288zM427 86v165h-162q-140 0 -140 -95q0 -54 43 -80.5
t118 -13.5zM360 726q22 -11 11 -38.5t-36 -17.5l-159 66l31 70z" />
    <glyph glyph-name="uni0089" horiz-adv-x="585" 
d="M560 45l-31 -55l-48 24q-28 14 -71 7l-120 -21q-108 -19 -173.5 26.5t-65.5 124.5q0 85 60 123.5t155 38.5h161v54q0 114 -120 114q-56 0 -105 -13l-119 -31l-15 67l121 32q53 14 119 14q84 0 137 -45t53 -138v-288zM427 86v165h-162q-140 0 -140 -95q0 -54 43 -80.5
t118 -13.5zM462 708l-27 -49l-146 78l-148 -77l-27 49l174 110z" />
    <glyph glyph-name="uni008A" horiz-adv-x="585" 
d="M560 45l-31 -55l-48 24q-28 14 -71 7l-120 -21q-108 -19 -173.5 26.5t-65.5 124.5q0 85 60 123.5t155 38.5h161v54q0 114 -120 114q-56 0 -105 -13l-119 -31l-15 67l121 32q53 14 119 14q84 0 137 -45t53 -138v-288zM427 86v165h-162q-140 0 -140 -95q0 -54 43 -80.5
t118 -13.5zM450 697q0 -23 -13.5 -39t-35.5 -16t-35.5 16t-13.5 39t13.5 39t35.5 16t35.5 -16t13.5 -39zM222 697q0 -23 -13.5 -39t-35.5 -16t-35.5 16t-13.5 39t13.5 39t35.5 16t35.5 -16t13.5 -39z" />
    <glyph glyph-name="uni008B" horiz-adv-x="585" 
d="M560 45l-31 -55l-48 24q-28 14 -71 7l-120 -21q-108 -19 -173.5 26.5t-65.5 124.5q0 85 60 123.5t155 38.5h161v54q0 114 -120 114q-56 0 -105 -13l-119 -31l-15 67l121 32q53 14 119 14q84 0 137 -45t53 -138v-288zM427 86v165h-162q-140 0 -140 -95q0 -54 43 -80.5
t118 -13.5zM497 779l-26 -45q-28 -47 -75 -58.5t-98 21.5l-57 41q-55 40 -93 -19l-26 -41l-47 31l26 42q31 51 77.5 60.5t95.5 -24.5l57 -40q28 -18 53 -12t41 33l26 41z" />
    <glyph glyph-name="uni008C" horiz-adv-x="585" 
d="M560 45l-31 -55l-48 24q-28 14 -71 7l-120 -21q-108 -19 -173.5 26.5t-65.5 124.5q0 85 60 123.5t155 38.5h161v54q0 114 -120 114q-56 0 -105 -13l-119 -31l-15 67l121 32q53 14 119 14q84 0 137 -45t53 -138v-288zM427 86v165h-162q-140 0 -140 -95q0 -54 43 -80.5
t118 -13.5zM403 712q0 -46 -30 -75t-78 -29h-12q-46 0 -76.5 29.5t-30.5 74.5q0 46 30 74.5t77 28.5h12q48 0 78 -28.5t30 -74.5zM353 712q0 25 -15 42t-43 17h-12q-25 0 -41 -17t-16 -42q0 -26 16 -43t41 -17h12q26 0 42 17t16 43z" />
    <glyph glyph-name="uni008D" horiz-adv-x="518" 
d="M486 509l-16 -67l-115 32q-27 8 -66 8q-81 0 -125.5 -58.5t-44.5 -151.5q0 -91 47.5 -151t126.5 -60q36 0 62 8l115 34l15 -67l-113 -32q-35 -10 -81 -10q-112 0 -180.5 79.5t-68.5 198.5q0 118 70 198t179 80q51 0 84 -10zM370 -102q0 -35 -25 -58t-71 -23q-24 0 -43 6
l-44 14l13 42l41 -11q15 -4 32 -4q47 0 47 32q0 22 -21.5 27.5t-67.5 3.5l-4 7l41 80h42l-23 -50q37 -1 60 -17.5t23 -48.5z" />
    <glyph glyph-name="uni008E" horiz-adv-x="580" 
d="M537 274q0 -34 -32 -34h-384q4 -81 53.5 -129.5t119.5 -48.5q53 0 101 13l119 32l15 -67l-121 -32q-52 -14 -116 -14q-112 0 -180.5 76.5t-68.5 200.5q0 128 73.5 204.5t176.5 76.5q113 0 180 -72t64 -206zM464 301q0 81 -43.5 134.5t-128.5 53.5q-74 0 -120 -52.5
t-51 -135.5h343zM212 726l153 80l31 -70l-159 -66q-25 -10 -36 17.5t11 38.5z" />
    <glyph glyph-name="uni008F" horiz-adv-x="580" 
d="M537 274q0 -34 -32 -34h-384q4 -81 53.5 -129.5t119.5 -48.5q53 0 101 13l119 32l15 -67l-121 -32q-52 -14 -116 -14q-112 0 -180.5 76.5t-68.5 200.5q0 128 73.5 204.5t176.5 76.5q113 0 180 -72t64 -206zM464 301q0 81 -43.5 134.5t-128.5 53.5q-74 0 -120 -52.5
t-51 -135.5h343zM370 726q22 -11 11 -38.5t-36 -17.5l-159 66l31 70z" />
    <glyph glyph-name="uni0090" horiz-adv-x="580" 
d="M537 274q0 -34 -32 -34h-384q4 -81 53.5 -129.5t119.5 -48.5q53 0 101 13l119 32l15 -67l-121 -32q-52 -14 -116 -14q-112 0 -180.5 76.5t-68.5 200.5q0 128 73.5 204.5t176.5 76.5q113 0 180 -72t64 -206zM464 301q0 81 -43.5 134.5t-128.5 53.5q-74 0 -120 -52.5
t-51 -135.5h343zM461 708l-27 -49l-146 78l-148 -77l-27 49l174 110z" />
    <glyph glyph-name="uni0091" horiz-adv-x="580" 
d="M537 274q0 -34 -32 -34h-384q4 -81 53.5 -129.5t119.5 -48.5q53 0 101 13l119 32l15 -67l-121 -32q-52 -14 -116 -14q-112 0 -180.5 76.5t-68.5 200.5q0 128 73.5 204.5t176.5 76.5q113 0 180 -72t64 -206zM464 301q0 81 -43.5 134.5t-128.5 53.5q-74 0 -120 -52.5
t-51 -135.5h343zM451 697q0 -23 -13.5 -39t-35.5 -16t-35.5 16t-13.5 39t13.5 39t35.5 16t35.5 -16t13.5 -39zM223 697q0 -23 -13.5 -39t-35.5 -16t-35.5 16t-13.5 39t13.5 39t35.5 16t35.5 -16t13.5 -39z" />
    <glyph glyph-name="uni0092" horiz-adv-x="226" 
d="M153 0h-77v544h77v-544zM33 726l153 80l31 -70l-159 -66q-25 -10 -36 17.5t11 38.5z" />
    <glyph glyph-name="uni0093" horiz-adv-x="226" 
d="M153 0h-77v544h77v-544zM193 726q22 -11 11 -38.5t-36 -17.5l-159 66l31 70z" />
    <glyph glyph-name="uni0094" horiz-adv-x="226" 
d="M153 0h-77v544h77v-544zM286 708l-27 -49l-146 78l-148 -77l-27 49l174 110z" />
    <glyph glyph-name="uni0095" horiz-adv-x="226" 
d="M242 697q0 -23 -13.5 -39t-35.5 -16t-35.5 16t-13.5 39t13.5 39t35.5 16t35.5 -16t13.5 -39zM78 697q0 -23 -13.5 -39t-35.5 -16t-35.5 16t-13.5 39t13.5 39t35.5 16t35.5 -16t13.5 -39zM153 0h-77v544h77v-544z" />
    <glyph glyph-name="uni0096" horiz-adv-x="570" 
d="M505 0h-73v353q0 143 -165 126l-119 -12v-467h-73v461q0 29 17 47.5t48 22.5l121 14q66 8 115 -4.5t76.5 -41.5t40 -65.5t12.5 -81.5v-352zM492 779l-26 -45q-28 -47 -75 -58.5t-98 21.5l-57 41q-55 40 -93 -19l-26 -41l-47 31l26 42q31 51 77.5 60.5t95.5 -24.5l57 -40
q28 -18 53 -12t41 33l26 41z" />
    <glyph glyph-name="uni0097" horiz-adv-x="594" 
d="M550 272q0 -119 -70 -198.5t-184 -79.5t-182 79.5t-68 198.5t70 198.5t184 79.5t182 -79.5t68 -198.5zM475 272q0 93 -48 154t-131 61t-128.5 -60.5t-45.5 -154.5q0 -93 47.5 -154.5t130.5 -61.5t129 60.5t46 155.5zM203 726l153 80l31 -70l-159 -66q-25 -10 -36 17.5
t11 38.5z" />
    <glyph glyph-name="uni0098" horiz-adv-x="594" 
d="M550 272q0 -119 -70 -198.5t-184 -79.5t-182 79.5t-68 198.5t70 198.5t184 79.5t182 -79.5t68 -198.5zM475 272q0 93 -48 154t-131 61t-128.5 -60.5t-45.5 -154.5q0 -93 47.5 -154.5t130.5 -61.5t129 60.5t46 155.5zM369 726q22 -11 11 -38.5t-36 -17.5l-159 66l31 70z
" />
    <glyph glyph-name="uni0099" horiz-adv-x="594" 
d="M550 272q0 -119 -70 -198.5t-184 -79.5t-182 79.5t-68 198.5t70 198.5t184 79.5t182 -79.5t68 -198.5zM475 272q0 93 -48 154t-131 61t-128.5 -60.5t-45.5 -154.5q0 -93 47.5 -154.5t130.5 -61.5t129 60.5t46 155.5zM466 708l-27 -49l-146 78l-148 -77l-27 49l174 110z
" />
    <glyph glyph-name="uni009A" horiz-adv-x="594" 
d="M550 272q0 -119 -70 -198.5t-184 -79.5t-182 79.5t-68 198.5t70 198.5t184 79.5t182 -79.5t68 -198.5zM475 272q0 93 -48 154t-131 61t-128.5 -60.5t-45.5 -154.5q0 -93 47.5 -154.5t130.5 -61.5t129 60.5t46 155.5zM457 697q0 -23 -13.5 -39t-35.5 -16t-35.5 16
t-13.5 39t13.5 39t35.5 16t35.5 -16t13.5 -39zM229 697q0 -23 -13.5 -39t-35.5 -16t-35.5 16t-13.5 39t13.5 39t35.5 16t35.5 -16t13.5 -39z" />
    <glyph glyph-name="uni009B" horiz-adv-x="594" 
d="M550 272q0 -119 -70 -198.5t-184 -79.5t-182 79.5t-68 198.5t70 198.5t184 79.5t182 -79.5t68 -198.5zM475 272q0 93 -48 154t-131 61t-128.5 -60.5t-45.5 -154.5q0 -93 47.5 -154.5t130.5 -61.5t129 60.5t46 155.5zM503 779l-26 -45q-28 -47 -75 -58.5t-98 21.5l-57 41
q-55 40 -93 -19l-26 -41l-47 31l26 42q31 51 77.5 60.5t95.5 -24.5l57 -40q28 -18 53 -12t41 33l26 41z" />
    <glyph glyph-name="uni009C" horiz-adv-x="570" 
d="M499 83q0 -29 -17 -47.5t-48 -22.5l-120 -14q-66 -8 -115 4.5t-76 41.5t-39.5 65.5t-12.5 81.5v352h73v-353q0 -143 164 -126l118 12v467h73v-461zM206 726l153 80l31 -70l-159 -66q-25 -10 -36 17.5t11 38.5z" />
    <glyph glyph-name="uni009D" horiz-adv-x="570" 
d="M499 83q0 -29 -17 -47.5t-48 -22.5l-120 -14q-66 -8 -115 4.5t-76 41.5t-39.5 65.5t-12.5 81.5v352h73v-353q0 -143 164 -126l118 12v467h73v-461zM364 726q22 -11 11 -38.5t-36 -17.5l-159 66l31 70z" />
    <glyph glyph-name="uni009E" horiz-adv-x="570" 
d="M499 83q0 -29 -17 -47.5t-48 -22.5l-120 -14q-66 -8 -115 4.5t-76 41.5t-39.5 65.5t-12.5 81.5v352h73v-353q0 -143 164 -126l118 12v467h73v-461zM462 708l-27 -49l-146 78l-148 -77l-27 49l174 110z" />
    <glyph glyph-name="uni009F" horiz-adv-x="570" 
d="M499 83q0 -29 -17 -47.5t-48 -22.5l-120 -14q-66 -8 -115 4.5t-76 41.5t-39.5 65.5t-12.5 81.5v352h73v-353q0 -143 164 -126l118 12v467h73v-461zM450 697q0 -23 -13.5 -39t-35.5 -16t-35.5 16t-13.5 39t13.5 39t35.5 16t35.5 -16t13.5 -39zM222 697q0 -23 -13.5 -39
t-35.5 -16t-35.5 16t-13.5 39t13.5 39t35.5 16t35.5 -16t13.5 -39z" />
    <glyph glyph-name="uni00A0" unicode="&#xa0;" horiz-adv-x="551" 
d="M508 416l-204 18l20 -617h-95l20 617l-206 -18v94l205 -17l-19 251h95l-18 -251l202 17v-94z" />
    <glyph glyph-name="exclamdown" unicode="&#xa1;" horiz-adv-x="476" 
d="M428 570q0 -85 -51.5 -140t-136.5 -55q-86 0 -136.5 55t-50.5 140q0 84 52 139t137 55t135.5 -55t50.5 -139zM360 570q0 62 -32 100t-88 38q-57 0 -87.5 -38t-30.5 -100t32 -101t88 -39t87 38.5t31 101.5z" />
    <glyph glyph-name="cent" unicode="&#xa2;" 
d="M508 508l-16 -66l-115 32q-27 8 -66 8q-81 0 -125.5 -58.5t-44.5 -151.5q0 -91 47.5 -151t126.5 -60q36 0 62 8l115 34l15 -66l-113 -33q-18 -5 -56 -9v-127h-72v129q-93 17 -147.5 92.5t-54.5 182.5q0 108 55.5 183t146.5 91v119h72v-117q30 -1 59 -9z" />
    <glyph glyph-name="sterling" unicode="&#xa3;" 
d="M567 51l-123 -38q-44 -13 -105 -13h-279q-20 0 -28 17t0.5 33.5t27.5 16.5q45 0 75 11.5t43.5 33.5t18.5 42.5t5 48.5q0 35 -15 72h-128v64h99l-58 111q-25 49 -25 118q0 89 63 137t164 48q63 0 106 -13l131 -40l-20 -68l-129 40q-41 12 -88 12q-77 0 -114.5 -31
t-37.5 -85t21 -96l68 -132h196v-64h-170q13 -38 13 -71q0 -83 -50 -136h111q49 0 87 11l121 38z" />
    <glyph glyph-name="yen" unicode="&#xa5;" horiz-adv-x="433" 
d="M335 344q0 -61 -30.5 -99.5t-85.5 -38.5t-86 38.5t-31 99.5q0 59 30 97t85 38t86.5 -37.5t31.5 -97.5z" />
    <glyph glyph-name="section" unicode="&#xa7;" horiz-adv-x="573" 
d="M527 189q0 -85 -55.5 -137t-149.5 -52h-94v63h94q66 0 99 34.5t33 88.5q0 42 -31 73l-59 59q-44 44 -12 94l40 64q27 42 27 94q0 56 -36.5 89t-105.5 33q-74 0 -106.5 -30t-32.5 -99v-563h-73v563q0 195 215 195q96 0 153.5 -49.5t57.5 -138.5q0 -67 -34 -121l-49 -77
l71 -72q48 -48 48 -111z" />
    <glyph glyph-name="copyright" unicode="&#xa9;" horiz-adv-x="933" 
d="M857 367q0 -162 -115 -277t-276 -115q-162 0 -277 114.5t-115 277.5q0 164 114.5 277t277.5 113q162 0 276.5 -112.5t114.5 -277.5zM794 367q0 140 -95.5 235t-232.5 95q-138 0 -234 -96t-96 -234q0 -137 96.5 -234t233.5 -97q136 0 232 97t96 234zM619 546l-13 -58
l-89 24q-17 5 -53 5q-63 0 -96.5 -40.5t-33.5 -109.5q0 -68 35.5 -110t97.5 -42q24 0 50 6l88 23l13 -55l-89 -23q-32 -8 -63 -8q-89 0 -142.5 58.5t-53.5 150.5q0 91 54 150t142 59q36 0 66 -8z" />
    <glyph glyph-name="ordfeminine" unicode="&#xaa;" horiz-adv-x="869" 
d="M802 334h-55v305l-96 -285q-8 -22 -34.5 -22t-33.5 22l-95 282v-302h-54v378q0 21 18.5 31.5t40 3.5t28.5 -28l97 -308l98 306q7 21 28 27.5t39.5 -3.5t18.5 -29v-378zM364 691h-122v-357h-62v357h-121v53h305v-53z" />
    <glyph glyph-name="guillemotleft" unicode="&#xab;" horiz-adv-x="542" 
d="M199 726l153 80l31 -70l-159 -66q-25 -10 -36 17.5t11 38.5z" />
    <glyph glyph-name="logicalnot" unicode="&#xac;" horiz-adv-x="572" 
d="M450 697q0 -23 -13.5 -39t-35.5 -16t-35.5 16t-13.5 39t13.5 39t35.5 16t35.5 -16t13.5 -39zM222 697q0 -23 -13.5 -39t-35.5 -16t-35.5 16t-13.5 39t13.5 39t35.5 16t35.5 -16t13.5 -39z" />
    <glyph glyph-name="uni00AD" unicode="&#xad;" horiz-adv-x="551" 
d="M520 180h-257l-66 -139h-54l66 139h-162v71h193l44 96h-237v71h265l72 155h53l-72 -155h155v-71h-183l-43 -96h226v-71z" />
    <glyph glyph-name="registered" unicode="&#xae;" horiz-adv-x="966" 
d="M926 0h-408q-33 0 -52.5 18.5t-19.5 49.5v100h-290l-58 -168h-84l244 684q22 60 86 60h579v-66h-401v-264h360v-66h-360v-282h404v-66zM446 233v445h-118l-151 -445h269z" />
    <glyph glyph-name="macron" unicode="&#xaf;" horiz-adv-x="760" 
d="M714 370q0 -168 -94 -273t-240 -105q-74 0 -142 33l-38 -77h-59l52 105q-67 49 -104.5 131.5t-37.5 185.5q0 165 94.5 271.5t239.5 106.5q75 0 143 -34l39 78h58l-53 -105q67 -49 104.5 -131.5t37.5 -185.5zM636 370q0 166 -97 252l-270 -536q52 -29 116 -29
q114 0 182.5 85.5t68.5 227.5zM496 651q-49 30 -116 30q-115 0 -183.5 -85.5t-68.5 -225.5q0 -169 98 -254z" />
    <glyph glyph-name="degree" unicode="&#xb0;" horiz-adv-x="801" 
d="M757 297q0 -94 -47.5 -153t-130.5 -59q-60 0 -104 23l-71 38l-74 -38q-44 -23 -104 -23q-84 0 -131 59t-47 153q0 96 46 154t132 58q59 0 104 -23l72 -37l73 37q45 23 104 23q85 0 131.5 -58t46.5 -154zM692 297q0 74 -30.5 110.5t-82.5 36.5q-43 0 -86 -19l-59 -25v-206
l59 -25q45 -19 86 -19q51 0 82 37t31 110zM371 194v206l-59 25q-43 19 -86 19q-52 0 -82.5 -36.5t-30.5 -110.5q0 -73 31 -110t82 -37q41 0 86 19z" />
    <glyph glyph-name="plusminus" unicode="&#xb1;" horiz-adv-x="551" 
d="M518 290h-202v-171h-73v171h-198v70h198v180h73v-180h202v-70zM518 0h-473v67h473v-67z" />
    <glyph glyph-name="uni00B2" unicode="&#xb2;" horiz-adv-x="551" 
d="M518 113l-451 156q-36 13 -36.5 51.5t36.5 51.5l451 157v-83l-403 -127l403 -126v-80zM516 0h-473v67h473v-67z" />
    <glyph glyph-name="uni00B3" unicode="&#xb3;" horiz-adv-x="551" 
d="M36 113v80l403 126l-403 127v83l451 -157q37 -13 36.5 -51.5t-36.5 -51.5zM38 0v67h473v-67h-473z" />
    <glyph glyph-name="uni00B5" unicode="&#xb5;" horiz-adv-x="572" 
d="M503 83q0 -29 -17 -47.5t-48 -22.5l-120 -13q-117 -12 -171 33v-217h-72v728h73v-353q0 -143 164 -126l118 12v467h73v-461z" />
    <glyph glyph-name="paragraph" unicode="&#xb6;" 
d="M534 250q0 -114 -63.5 -185t-176.5 -71q-116 0 -178 68.5t-62 176.5q0 116 71 186.5t211 55.5l124 -13v38q0 82 -41 127.5t-122 45.5q-48 0 -82 -11l-130 -40l-20 69l131 40q45 13 106 13q109 0 170.5 -68t61.5 -176v-256zM460 254v148l-130 11q-201 17 -201 -174
q0 -82 41.5 -130t119.5 -48q84 0 127 52t43 141z" />
    <glyph glyph-name="periodcentered" unicode="&#xb7;" horiz-adv-x="685" 
d="M654 -180h-551q-35 0 -47.5 32t8.5 60l268 370l-268 370q-21 28 -8.5 60t47.5 32h541v-167h-72v95h-429l285 -389l-285 -391h439v106h72v-178z" />
    <glyph glyph-name="uni00B9" unicode="&#xb9;" horiz-adv-x="696" 
d="M692 9l-61 -11q-93 -17 -152.5 25.5t-59.5 157.5v299h-222v-480h-74v480h-89v64h631v-64h-174v-299q0 -23 2.5 -40.5t10 -36t22 -27t37.5 -14t56 2.5l61 11z" />
    <glyph glyph-name="ordmasculine" unicode="&#xba;" horiz-adv-x="402" 
d="M411 749l-12 -68l-61 11q-78 14 -103 -17t-25 -98v-570q0 -115 -59.5 -157.5t-152.5 -25.5l-61 11l12 68l61 -11q78 -14 103 17t25 98v570q0 115 59.5 157.5t152.5 25.5z" />
    <glyph glyph-name="guillemotright" unicode="&#xbb;" horiz-adv-x="551" 
d="M478 370l-27 -50l-42 19q-22 10 -50 5l-88 -16q-85 -16 -135 19t-50 98q0 126 166 126h114v36q0 82 -84 82q-46 0 -76 -9l-95 -21l-13 57l93 25q41 11 92 11q66 0 107 -35t41 -110v-211zM366 401v114h-115q-49 0 -72.5 -15t-23.5 -51q0 -39 28.5 -56.5t82.5 -8.5z" />
    <glyph glyph-name="questiondown" unicode="&#xbf;" horiz-adv-x="594" 
d="M550 272q0 -119 -70 -198.5t-184 -79.5q-52 0 -98 19l-33 -65h-55l45 89q-52 37 -80.5 98.5t-28.5 136.5q0 119 70 198.5t184 79.5q57 0 102 -21l31 61h54l-43 -85q51 -37 78.5 -98t27.5 -135zM475 272q0 109 -62 171l-186 -372q31 -15 73 -15q83 0 129 60.5t46 155.5z
M373 470q-36 17 -77 17q-83 0 -128.5 -60.5t-45.5 -154.5q0 -113 64 -174z" />
    <glyph glyph-name="Agrave" unicode="&#xc0;" horiz-adv-x="457" 
d="M34 -18q0 28 11 66t36 64l121 127v82l71 13v-62q0 -35 -5.5 -51.5t-27.5 -39.5l-99 -107q-35 -38 -35 -95q0 -43 32 -70.5t87 -27.5q56 0 105 13l83 22l15 -67l-85 -23q-53 -14 -121 -14q-84 0 -136 45.5t-52 124.5zM186 512q0 24 14.5 40t37.5 16t37 -16t14 -40
t-14 -40.5t-37 -16.5t-37.5 16.5t-14.5 40.5z" />
    <glyph glyph-name="Aacute" unicode="&#xc1;" horiz-adv-x="208" 
d="M66 321l76 14v-519h-76v505zM54 513q0 24 13.5 40t36.5 16t36.5 -16t13.5 -40t-13.5 -40t-36.5 -16t-36.5 16t-13.5 40z" />
    <glyph glyph-name="Acircumflex" unicode="&#xc2;" horiz-adv-x="551" 
d="M513 93h-72v215h-401v71h473v-286z" />
    <glyph glyph-name="Atilde" unicode="&#xc3;" horiz-adv-x="641" 
d="M642 677h-104l-193 -648q-12 -40 -50.5 -39.5t-50.5 39.5l-139 446h-95v67h158l128 -439l183 641h163v-67z" />
    <glyph glyph-name="Adieresis" unicode="&#xc4;" horiz-adv-x="402" 
d="M411 749l-12 -68l-61 11q-78 14 -103 -17t-25 -98v-43h174v-65h-174v-462q0 -115 -59.5 -157.5t-152.5 -25.5l-61 11l12 68l61 -11q78 -14 103 17t25 98v462h-89v65h89v43q0 115 59.5 157.5t152.5 25.5z" />
    <glyph glyph-name="Aring" unicode="&#xc5;" horiz-adv-x="551" 
d="M522 415l-26 -43q-27 -45 -72.5 -56t-100.5 13l-122 51q-61 27 -95 -23l-25 -40l-47 30l26 41q56 92 172 44l123 -53q62 -25 95 26l26 39zM534 253l-26 -43q-27 -45 -73 -56.5t-100 12.5l-121 52q-64 26 -95 -24l-26 -39l-47 30l26 41q57 92 172 43l124 -52q60 -26 95 25
l25 40z" />
    <glyph glyph-name="AE" unicode="&#xc6;" horiz-adv-x="649" 
d="M638 0h-623l253 709q10 27 35 37.5t50.5 0t34.5 -36.5zM534 64l-209 602l-205 -602h414z" />
    <glyph glyph-name="Ccedilla" unicode="&#xc7;" horiz-adv-x="548" 
d="M295 328l165 162l48 -47l-164 -162l169 -166l-45 -44l-170 165q-22 22 -22.5 47t19.5 45zM87 328l165 162l48 -47l-164 -162l169 -166l-45 -44l-170 165q-22 22 -22.5 47t19.5 45z" />
    <glyph glyph-name="Egrave" unicode="&#xc8;" horiz-adv-x="548" 
d="M261 328q20 -20 19.5 -45t-22.5 -47l-170 -165l-45 44l169 166l-164 162l48 47zM469 328q20 -20 19.5 -45t-22.5 -47l-170 -165l-45 44l169 166l-164 162l48 47z" />
    <glyph glyph-name="Eacute" unicode="&#xc9;" horiz-adv-x="624" 
d="M155 47q0 -24 -13.5 -40t-36.5 -16t-36.5 16t-13.5 40t13.5 40t36.5 16t36.5 -16t13.5 -40zM363 47q0 -24 -13.5 -40t-36.5 -16t-36.5 16t-13.5 40t13.5 40t36.5 16t36.5 -16t13.5 -40zM571 47q0 -24 -13.5 -40t-36.5 -16t-36.5 16t-13.5 40t13.5 40t36.5 16t36.5 -16
t13.5 -40z" />
    <glyph glyph-name="Edieresis" unicode="&#xcb;" horiz-adv-x="649" 
d="M637 0h-83l-59 168h-341l-59 -168h-81l254 709q10 27 35 37.5t50.5 0t34.5 -36.5zM473 233l-146 438l-151 -438h297zM398 866q22 -11 11 -38.5t-36 -17.5l-159 66l31 70z" />
    <glyph glyph-name="Igrave" unicode="&#xcc;" horiz-adv-x="649" 
d="M637 0h-83l-59 168h-341l-59 -168h-81l254 709q10 27 35 37.5t50.5 0t34.5 -36.5zM473 233l-146 438l-151 -438h297zM540 907l-26 -45q-28 -47 -75 -58.5t-98 21.5l-57 41q-55 40 -93 -19l-26 -41l-47 31l26 42q31 51 77.5 60.5t95.5 -24.5l57 -40q28 -18 53 -12t41 33
l26 41z" />
    <glyph glyph-name="Iacute" unicode="&#xcd;" horiz-adv-x="760" 
d="M714 370q0 -168 -94 -273t-240 -105q-144 0 -236.5 106t-92.5 272q0 165 94.5 271.5t239.5 106.5q144 0 236.5 -106t92.5 -272zM636 370q0 139 -70.5 225t-185.5 86t-183.5 -85.5t-68.5 -225.5t71 -226.5t186 -86.5q114 0 182.5 85.5t68.5 227.5zM587 907l-26 -45
q-28 -47 -75 -58.5t-98 21.5l-57 41q-55 40 -93 -19l-26 -41l-47 31l26 42q31 51 77.5 60.5t95.5 -24.5l57 -40q28 -18 53 -12t41 33l26 41z" />
    <glyph glyph-name="Icircumflex" unicode="&#xce;" horiz-adv-x="1081" 
d="M1025 0h-658q-143 0 -231.5 105.5t-88.5 268.5q0 162 90.5 266t234.5 104h650v-66h-401v-264h360v-66h-360v-282h404v-66zM545 64v615h-170q-118 0 -184.5 -83.5t-66.5 -221.5q0 -135 69 -222.5t189 -87.5h163z" />
    <glyph glyph-name="Idieresis" unicode="&#xcf;" horiz-adv-x="1007" 
d="M964 274q0 -34 -32 -34h-384q4 -81 53.5 -129.5t119.5 -48.5q53 0 101 13l119 32l15 -67l-121 -32q-52 -14 -116 -14q-73 0 -127.5 33.5t-82.5 93.5q-29 -60 -84 -93.5t-129 -33.5q-114 0 -182 79.5t-68 198.5t70 198.5t184 79.5q73 0 128 -33.5t83 -93.5q30 63 86 96
t123 33q113 0 180 -72t64 -206zM891 301q0 81 -43.5 134.5t-128.5 53.5q-74 0 -120 -52.5t-51 -135.5h343zM475 272q0 93 -48 154t-131 61t-128.5 -60.5t-45.5 -154.5q0 -93 47.5 -154.5t130.5 -61.5t129 60.5t46 155.5z" />
    <glyph glyph-name="Eth" unicode="&#xd0;" horiz-adv-x="551" 
d="M520 304h-473v75h473v-75z" />
    <glyph glyph-name="Ntilde" unicode="&#xd1;" horiz-adv-x="1000" 
d="M954 304h-903v75h903v-75z" />
    <glyph glyph-name="Ograve" unicode="&#xd2;" horiz-adv-x="383" 
d="M215 583l40 145q4 17 17.5 25.5t31.5 4.5q36 -8 26 -49l-38 -145zM41 596l40 145q4 17 17.5 25.5t31.5 4.5q36 -8 26 -49l-38 -145z" />
    <glyph glyph-name="Oacute" unicode="&#xd3;" horiz-adv-x="383" 
d="M161 761l-40 -145q-4 -17 -17.5 -25.5t-31.5 -4.5q-36 8 -26 49l38 145zM335 748l-40 -145q-4 -17 -17.5 -25.5t-31.5 -4.5q-36 8 -26 49l38 145z" />
    <glyph glyph-name="Ocircumflex" unicode="&#xd4;" horiz-adv-x="208" 
d="M41 596l40 145q4 17 17.5 25.5t31.5 4.5q36 -8 26 -49l-38 -145z" />
    <glyph glyph-name="Otilde" unicode="&#xd5;" horiz-adv-x="208" 
d="M161 761l-40 -145q-4 -17 -17.5 -25.5t-31.5 -4.5q-36 8 -26 49l38 145z" />
    <glyph glyph-name="Odieresis" unicode="&#xd6;" horiz-adv-x="551" 
d="M328 499q0 -23 -13 -38.5t-35 -15.5t-35 15.5t-13 38.5t13 38.5t35 15.5t35 -15.5t13 -38.5zM518 259h-473v71h473v-71zM328 89q0 -23 -13 -38.5t-35 -15.5t-35 15.5t-13 38.5t13 38.5t35 15.5t35 -15.5t13 -38.5z" />
    <glyph glyph-name="multiply" unicode="&#xd7;" horiz-adv-x="649" 
d="M624 372l-244 -356q-19 -28 -53 -28.5t-55 28.5l-244 356l244 356q19 28 53 28.5t55 -28.5zM540 372l-211 315l-214 -315l214 -314z" />
    <glyph glyph-name="Oslash" unicode="&#xd8;" horiz-adv-x="530" 
d="M514 544l-211 -626q-42 -123 -201 -95l-61 11l12 67l61 -11q25 -3 42.5 -4t31 5t21.5 11t14 14.5t8.5 16t4.5 15.5l7 27l-219 569h84l175 -478l149 478h82zM440 697q0 -23 -13.5 -39t-35.5 -16t-35.5 16t-13.5 39t13.5 39t35.5 16t35.5 -16t13.5 -39zM212 697
q0 -23 -13.5 -39t-35.5 -16t-35.5 16t-13.5 39t13.5 39t35.5 16t35.5 -16t13.5 -39z" />
    <glyph glyph-name="Ugrave" unicode="&#xd9;" horiz-adv-x="641" 
d="M619 744l-252 -389v-355h-78v353l-258 391h88l211 -319l203 319h86zM495 873q0 -23 -13.5 -39t-35.5 -16t-35.5 16t-13.5 39t13.5 39t35.5 16t35.5 -16t13.5 -39zM267 873q0 -23 -13.5 -39t-35.5 -16t-35.5 16t-13.5 39t13.5 39t35.5 16t35.5 -16t13.5 -39z" />
    <glyph glyph-name="Uacute" unicode="&#xda;" horiz-adv-x="901" 
d="M786 744l-595 -744h-82l597 744h80z" />
    <glyph glyph-name="Ucircumflex" unicode="&#xdb;" 
d="M554 712l-17 -68l-115 31q-23 6 -60 6q-85 0 -131 -52t-46 -155h264l-28 -66h-237v-85h204l-28 -66h-175q0 -94 48.5 -146t131.5 -52q30 0 59 9l114 33l15 -67l-113 -32q-37 -10 -81 -10q-111 0 -182 71t-71 194h-81l22 66h59v85h-76l23 66h53q0 131 69.5 205t183.5 74
q51 0 84 -10z" />
    <glyph glyph-name="Udieresis" unicode="&#xdc;" horiz-adv-x="340" 
d="M87 328l165 162l48 -47l-164 -162l169 -166l-45 -44l-170 165q-22 22 -22.5 47t19.5 45z" />
    <glyph glyph-name="Yacute" unicode="&#xdd;" horiz-adv-x="340" 
d="M261 328q20 -20 19.5 -45t-22.5 -47l-170 -165l-45 44l169 166l-164 162l48 47z" />
    <glyph glyph-name="Thorn" unicode="&#xde;" horiz-adv-x="578" 
d="M529 716q0 -24 -13.5 -40t-36.5 -16t-36.5 16t-13.5 40t13.5 40t36.5 16t36.5 -16t13.5 -40zM518 0h-77v471h-260v-471h-72v471h-89v65h89v41q0 115 59.5 157.5t152.5 25.5l61 -11l-12 -68l-61 11q-78 14 -103 -17t-25 -98v-41h337v-536z" />
    <glyph glyph-name="germandbls" unicode="&#xdf;" horiz-adv-x="578" 
d="M516 0h-74v683l-133 14q-79 8 -103.5 -23t-24.5 -97v-43h174v-65h-174v-469h-72v469h-89v65h89v43q0 208 210 186l122 -13l75 19v-769z" />
    <glyph glyph-name="agrave" unicode="&#xe0;" horiz-adv-x="551" 
d="M508 50l-202 18l18 -252h-95l19 252l-205 -18v94l212 -17l-26 153l26 154l-212 -18v94l205 -17l-19 251h95l-18 -251l202 17v-94l-210 18l26 -154l-26 -153l210 17v-94z" />
    <glyph glyph-name="aacute" unicode="&#xe1;" horiz-adv-x="374" 
d="M239 367q0 -24 -13.5 -40t-36.5 -16t-36.5 16t-13.5 40t13.5 40t36.5 16t36.5 -16t13.5 -40z" />
    <glyph glyph-name="acircumflex" unicode="&#xe2;" horiz-adv-x="208" 
d="M161 85l-40 -145q-4 -17 -17.5 -25.5t-31.5 -4.5q-36 8 -26 49l38 145z" />
    <glyph glyph-name="atilde" unicode="&#xe3;" horiz-adv-x="383" 
d="M161 85l-40 -145q-4 -17 -17.5 -25.5t-31.5 -4.5q-36 8 -26 49l38 145zM335 72l-40 -145q-4 -17 -17.5 -25.5t-31.5 -4.5q-36 8 -26 49l38 145z" />
    <glyph glyph-name="adieresis" unicode="&#xe4;" horiz-adv-x="1315" 
d="M1282 177q0 -85 -50.5 -140t-134.5 -55t-133.5 55t-49.5 140q0 84 51 139t134 55q84 0 133.5 -55t49.5 -139zM862 177q0 -85 -50.5 -140t-134.5 -55t-133.5 55t-49.5 140q0 84 51 139t134 55q84 0 133.5 -55t49.5 -139zM789 748l-601 -752h-82l602 752h81zM408 570
q0 -85 -50.5 -140t-134.5 -55t-133.5 55t-49.5 140q0 84 51 139t134 55q84 0 133.5 -55t49.5 -139zM1215 177q0 62 -31.5 100t-86.5 38t-85 -38t-30 -100t31 -101t86 -39q56 0 86 38.5t30 101.5zM795 177q0 62 -31.5 100t-86.5 38t-85 -38t-30 -100t31 -101t86 -39
q56 0 86 38.5t30 101.5zM341 570q0 62 -31.5 100t-86.5 38t-85 -38t-30 -100t31 -101t86 -39q56 0 86 38.5t30 101.5z" />
    <glyph glyph-name="aring" unicode="&#xe5;" horiz-adv-x="649" 
d="M637 0h-83l-59 168h-341l-59 -168h-81l254 709q10 27 35 37.5t50.5 0t34.5 -36.5zM473 233l-146 438l-151 -438h297zM501 849l-27 -49l-146 78l-148 -77l-27 49l174 110z" />
    <glyph glyph-name="ae" unicode="&#xe6;" horiz-adv-x="606" 
d="M554 0h-408q-34 0 -53.5 18.5t-19.5 49.5v608q0 31 19.5 49.5t53.5 18.5h405v-66h-401v-264h360v-66h-360v-282h404v-66zM486 849l-27 -49l-146 78l-148 -77l-27 49l174 110z" />
    <glyph glyph-name="ccedilla" unicode="&#xe7;" horiz-adv-x="649" 
d="M637 0h-83l-59 168h-341l-59 -168h-81l254 709q10 27 35 37.5t50.5 0t34.5 -36.5zM473 233l-146 438l-151 -438h297zM241 866l153 80l31 -70l-159 -66q-25 -10 -36 17.5t11 38.5z" />
    <glyph glyph-name="egrave" unicode="&#xe8;" horiz-adv-x="606" 
d="M554 0h-408q-34 0 -53.5 18.5t-19.5 49.5v608q0 31 19.5 49.5t53.5 18.5h405v-66h-401v-264h360v-66h-360v-282h404v-66zM471 873q0 -23 -13.5 -39t-35.5 -16t-35.5 16t-13.5 39t13.5 39t35.5 16t35.5 -16t13.5 -39zM243 873q0 -23 -13.5 -39t-35.5 -16t-35.5 16
t-13.5 39t13.5 39t35.5 16t35.5 -16t13.5 -39z" />
    <glyph glyph-name="eacute" unicode="&#xe9;" horiz-adv-x="606" 
d="M554 0h-408q-34 0 -53.5 18.5t-19.5 49.5v608q0 31 19.5 49.5t53.5 18.5h405v-66h-401v-264h360v-66h-360v-282h404v-66zM382 866q22 -11 11 -38.5t-36 -17.5l-159 66l31 70z" />
    <glyph glyph-name="ecircumflex" unicode="&#xea;" horiz-adv-x="232" 
d="M160 0h-80v744h80v-744zM34 866l153 80l31 -70l-159 -66q-25 -10 -36 17.5t11 38.5z" />
    <glyph glyph-name="edieresis" unicode="&#xeb;" horiz-adv-x="232" 
d="M160 0h-80v744h80v-744zM290 849l-27 -49l-146 78l-148 -77l-27 49l174 110z" />
    <glyph glyph-name="igrave" unicode="&#xec;" horiz-adv-x="232" 
d="M251 873q0 -23 -13.5 -39t-35.5 -16t-35.5 16t-13.5 39t13.5 39t35.5 16t35.5 -16t13.5 -39zM87 873q0 -23 -13.5 -39t-35.5 -16t-35.5 16t-13.5 39t13.5 39t35.5 16t35.5 -16t13.5 -39zM160 0h-80v744h80v-744z" />
    <glyph glyph-name="iacute" unicode="&#xed;" horiz-adv-x="232" 
d="M160 0h-80v744h80v-744zM205 866q22 -11 11 -38.5t-36 -17.5l-159 66l31 70z" />
    <glyph glyph-name="icircumflex" unicode="&#xee;" horiz-adv-x="760" 
d="M714 370q0 -168 -94 -273t-240 -105q-144 0 -236.5 106t-92.5 272q0 165 94.5 271.5t239.5 106.5q144 0 236.5 -106t92.5 -272zM636 370q0 139 -70.5 225t-185.5 86t-183.5 -85.5t-68.5 -225.5t71 -226.5t186 -86.5q114 0 182.5 85.5t68.5 227.5zM304 866l153 80l31 -70
l-159 -66q-25 -10 -36 17.5t11 38.5z" />
    <glyph glyph-name="idieresis" unicode="&#xef;" horiz-adv-x="760" 
d="M714 370q0 -168 -94 -273t-240 -105q-144 0 -236.5 106t-92.5 272q0 165 94.5 271.5t239.5 106.5q144 0 236.5 -106t92.5 -272zM636 370q0 139 -70.5 225t-185.5 86t-183.5 -85.5t-68.5 -225.5t71 -226.5t186 -86.5q114 0 182.5 85.5t68.5 227.5zM557 849l-27 -49
l-146 78l-148 -77l-27 49l174 110z" />
    <glyph glyph-name="eth" unicode="&#xf0;" 
d="M579 45l-31 -55l-48 24q-30 15 -71 7l-106 -19q-65 -12 -118.5 6.5t-88 58t-53 93.5t-18.5 115q0 125 79.5 206.5t211.5 60.5l93 -15q46 -7 71 5l48 24l31 -55l-62 -34v-388zM445 88v370l-109 17q-56 9 -98.5 -4t-67.5 -42.5t-37 -68.5t-12 -85q0 -103 53 -163t162 -42z
" />
    <glyph glyph-name="ntilde" unicode="&#xf1;" horiz-adv-x="760" 
d="M714 370q0 -168 -94 -273t-240 -105q-144 0 -236.5 106t-92.5 272q0 165 94.5 271.5t239.5 106.5q144 0 236.5 -106t92.5 -272zM636 370q0 139 -70.5 225t-185.5 86t-183.5 -85.5t-68.5 -225.5t71 -226.5t186 -86.5q114 0 182.5 85.5t68.5 227.5zM442 866
q22 -11 11 -38.5t-36 -17.5l-159 66l31 70z" />
    <glyph glyph-name="ograve" unicode="&#xf2;" horiz-adv-x="666" 
d="M601 264q0 -128 -71.5 -203t-194.5 -75q-122 0 -194 75.5t-72 202.5v480h76v-480q0 -99 50 -154t140 -55q92 0 141 54.5t49 154.5v480h76v-480zM259 866l153 80l31 -70l-159 -66q-25 -10 -36 17.5t11 38.5z" />
    <glyph glyph-name="oacute" unicode="&#xf3;" horiz-adv-x="666" 
d="M601 264q0 -128 -71.5 -203t-194.5 -75q-122 0 -194 75.5t-72 202.5v480h76v-480q0 -99 50 -154t140 -55q92 0 141 54.5t49 154.5v480h76v-480zM508 849l-27 -49l-146 78l-148 -77l-27 49l174 110z" />
    <glyph glyph-name="ocircumflex" unicode="&#xf4;" horiz-adv-x="666" 
d="M601 264q0 -128 -71.5 -203t-194.5 -75q-122 0 -194 75.5t-72 202.5v480h76v-480q0 -99 50 -154t140 -55q92 0 141 54.5t49 154.5v480h76v-480zM402 866q22 -11 11 -38.5t-36 -17.5l-159 66l31 70z" />
    <glyph glyph-name="otilde" unicode="&#xf5;" horiz-adv-x="226" 
d="M153 0h-77v544h77v-544z" />
    <glyph glyph-name="odieresis" unicode="&#xf6;" horiz-adv-x="531" 
d="M449 708l-27 -49l-146 78l-148 -77l-27 49l174 110z" />
    <glyph glyph-name="divide" unicode="&#xf7;" horiz-adv-x="531" 
d="M490 779l-26 -45q-28 -47 -75 -58.5t-98 21.5l-57 41q-55 40 -93 -19l-26 -41l-47 31l26 42q31 51 77.5 60.5t95.5 -24.5l57 -40q28 -18 53 -12t41 33l26 41z" />
    <glyph glyph-name="oslash" unicode="&#xf8;" horiz-adv-x="531" 
d="M429 679h-324v65h324v-65z" />
    <glyph glyph-name="ugrave" unicode="&#xf9;" horiz-adv-x="531" 
d="M428 788q0 -55 -34 -90.5t-92 -35.5h-69q-58 0 -92 35.5t-34 90.5v12h55v-12q0 -31 19.5 -52t50.5 -21h71q31 0 50.5 21t19.5 52v12h55v-12z" />
    <glyph glyph-name="uacute" unicode="&#xfa;" horiz-adv-x="531" 
d="M316 697q0 -24 -13.5 -40t-36.5 -16t-36.5 16t-13.5 40t13.5 40t36.5 16t36.5 -16t13.5 -40z" />
    <glyph glyph-name="ucircumflex" unicode="&#xfb;" horiz-adv-x="531" 
d="M395 712q0 -46 -30 -75t-78 -29h-12q-46 0 -76.5 29.5t-30.5 74.5q0 46 30 74.5t77 28.5h12q48 0 78 -28.5t30 -74.5zM345 712q0 25 -15 42t-43 17h-12q-25 0 -41 -17t-16 -42q0 -26 16 -43t41 -17h12q26 0 42 17t16 43z" />
    <glyph glyph-name="udieresis" unicode="&#xfc;" horiz-adv-x="531" 
d="M360 -102q0 -35 -25 -58t-71 -23q-24 0 -43 6l-44 14l13 42l41 -11q15 -4 32 -4q47 0 47 32q0 22 -21.5 27.5t-67.5 3.5l-4 7l41 80h42l-23 -50q37 -1 60 -17.5t23 -48.5z" />
    <glyph glyph-name="yacute" unicode="&#xfd;" horiz-adv-x="531" 
d="M460 759l-140 -131l-39 42l127 143zM271 772l-140 -131l-39 41l127 144z" />
    <glyph glyph-name="thorn" unicode="&#xfe;" horiz-adv-x="531" 
d="M410 -159l-43 -14q-29 -9 -63 -9q-53 0 -86.5 20.5t-33.5 64.5q0 51 45 80l66 15q-22 -14 -37.5 -36t-15.5 -44q0 -23 18.5 -36t47.5 -13q24 0 46 6l42 11z" />
    <glyph glyph-name="ydieresis" unicode="&#xff;" horiz-adv-x="531" 
d="M449 759l-174 -111l-174 110l27 49l148 -77l146 78z" />
    <glyph glyph-name="OE" unicode="&#x152;" horiz-adv-x="551" 
d="M470 539q0 -94 -52 -154.5t-137 -60.5q-86 0 -136.5 60t-50.5 155q0 94 52 154t137 60q86 0 136.5 -60t50.5 -154zM403 539q0 69 -33 113t-89 44q-57 0 -88 -43.5t-31 -113.5t32.5 -114t88.5 -44q57 0 88.5 44t31.5 114z" />
    <glyph glyph-name="oe" unicode="&#x153;" horiz-adv-x="762" 
d="M714 432q0 -103 -61 -187t-161 -111v-71h157v-63h-224v183q96 12 153.5 81t57.5 168q0 102 -72 174.5t-184 72.5q-113 0 -182.5 -70.5t-69.5 -176.5q0 -100 56 -167t151 -81v-184h-224v63h157v71q-100 28 -158.5 108.5t-58.5 189.5q0 130 95.5 222.5t238.5 92.5
q141 0 235 -93.5t94 -221.5z" />
    <glyph glyph-name="Scaron" unicode="&#x160;" horiz-adv-x="635" 
d="M567 -184h-70v865h-144v-865h-70v412q-114 0 -175.5 72.5t-61.5 185.5t62 185.5t180 72.5h279v-928z" />
    <glyph glyph-name="scaron" unicode="&#x161;" horiz-adv-x="933" 
d="M857 367q0 -162 -115 -277t-276 -115q-162 0 -277 114.5t-115 277.5q0 164 114.5 277t277.5 113q162 0 276.5 -112.5t114.5 -277.5zM794 367q0 140 -95.5 235t-232.5 95q-138 0 -234 -96t-96 -234q0 -137 96.5 -234t233.5 -97q136 0 232 97t96 234zM654 166h-61
q-15 12 -25 51l-16 60q-7 26 -17 37t-34 11h-113v-159h-60v405h177q53 0 85.5 -26t32.5 -76q0 -40 -21 -73l-27 -43q26 -21 37 -69l12 -52q4 -15 11.5 -31.5t12.5 -25.5zM560 469q0 52 -62 52h-110v-143h136l22 38q14 24 14 53z" />
    <glyph glyph-name="Ydieresis" unicode="&#x178;" horiz-adv-x="957" 
d="M914 274q0 -34 -32 -34h-384q4 -81 53.5 -129.5t119.5 -48.5q53 0 101 13l119 32l15 -67l-121 -32q-52 -14 -116 -14q-71 0 -127 34q-4 2 -7 4t-7.5 3t-7 1.5t-8 0.5h-7.5t-8.5 -1t-8 -1t-9.5 -1.5t-9 -1.5l-180 -32q-108 -19 -173.5 26.5t-65.5 124.5q0 85 60 123.5
t155 38.5h161v54q0 114 -120 114q-56 0 -105 -13l-119 -31l-15 67l121 32q53 14 119 14q131 0 171 -96q32 48 83.5 73t107.5 25q113 0 180 -72t64 -206zM841 301q0 81 -43.5 134.5t-128.5 53.5q-74 0 -120 -52.5t-51 -135.5h343zM470 95q-21 33 -32.5 72t-11.5 61l-1 23
h-160q-140 0 -140 -95q0 -54 43 -80.5t118 -13.5z" />
    <glyph glyph-name="Zcaron" unicode="&#x17d;" 
d="M565 744l-195 -330h171v-63h-204v-88h204v-64h-204v-199h-79v199h-207v64h207v88h-207v63h173l-197 330h91l181 -318l178 318h88z" />
    <glyph glyph-name="zcaron" unicode="&#x17e;" horiz-adv-x="664" 
d="M632 675h-118v-675h-81v675h-202v-675h-81v675h-118v69h600v-69z" />
    <glyph glyph-name="Euro" unicode="&#x20ac;" 
d="M543 22q0 -103 -65 -156t-180 -53q-64 0 -117 17l-122 38l20 69l130 -39q38 -12 87 -12q171 0 171 136v88l-116 -41q-96 -33 -161.5 -14t-100 73.5t-34.5 131.5v283q0 103 65 156t180 53q64 0 117 -17l122 -38l-20 -69l-130 39q-38 12 -87 12q-171 0 -171 -136v-100
l116 41q137 47 216.5 -12t79.5 -179v-271zM467 178v114q0 92 -57.5 121t-146.5 2l-132 -41v-113q0 -92 58 -122t146 -2z" />
  </font>
</defs>
</svg>
