<?xml version="1.0" encoding="utf-8"?>
<!-- Generator: Adobe Illustrator 15.0.0, SVG Export Plug-In . SVG Version: 6.00 Build 0)  -->
<!DOCTYPE svg PUBLIC "-//W3C//DTD SVG 1.1//EN" "http://www.w3.org/Graphics/SVG/1.1/DTD/svg11.dtd">
<svg version="1.1" id="Layer_2" xmlns="http://www.w3.org/2000/svg" xmlns:xlink="http://www.w3.org/1999/xlink" x="0px" y="0px"
	 width="853.333px" height="853.333px" viewBox="0 0 853.333 853.333" enable-background="new 0 0 853.333 853.333"
	 xml:space="preserve">
<path fill="#222222" d="M391.058,694.167c0,0-12.853-9.996-24.277-45.696L324.656,519.95c-7.854-23.562-17.137-44.269-47.125-44.269
	H107.597v218.485H53.333V211.5c0-29.274,19.992-48.552,52.122-48.552h162.079c84.253,0,140.659,31.416,140.659,122.809
	c0,21.42-0.714,58.548-27.132,104.245l-36.414,62.118c13.565,12.853,23.562,32.131,32.844,61.404l37.842,121.381
	c12.139,38.557,30.703,59.263,30.703,59.263H391.058z M266.821,208.644H107.597v220.627h192.068l36.414-65.688
	c15.708-28.561,19.277-57.834,19.277-77.827C355.357,235.062,328.225,208.644,266.821,208.644z"/>
<path fill="#222222" d="M683.473,474.967H533.497v219.199h-52.836V211.5c0-29.274,19.992-48.552,52.121-48.552h147.799
	c85.682,0,139.945,68.544,139.945,154.225C820.526,403.567,766.007,474.967,683.473,474.967z M677.725,208.644H533.497v219.914
	h143.549c65.689-3.57,93.5-54.393,93.5-112.099C770.545,256.482,736.274,208.644,677.725,208.644z"/>
</svg>
