<?xml version="1.0" encoding="utf-8"?>
<!-- Generator: Adobe Illustrator 15.0.0, SVG Export Plug-In . SVG Version: 6.00 Build 0)  -->
<!DOCTYPE svg PUBLIC "-//W3C//DTD SVG 1.1//EN" "http://www.w3.org/Graphics/SVG/1.1/DTD/svg11.dtd">
<svg version="1.1" id="Layer_1" xmlns="http://www.w3.org/2000/svg" xmlns:xlink="http://www.w3.org/1999/xlink" x="0px" y="0px"
	 width="853.333px" height="853.333px" viewBox="0 0 853.333 853.333" enable-background="new 0 0 853.333 853.333"
	 xml:space="preserve">
<path fill="#222222" d="M361.216,691.506c0,0-12.853-9.996-24.276-45.695L294.815,517.29c-7.854-23.562-17.138-44.27-47.125-44.27
	H106.101v218.486H51.836V208.838c0-29.274,19.992-48.552,52.122-48.552h133.734c84.253,0,140.659,31.416,140.659,122.809
	c0,21.42-0.715,58.548-27.133,104.245l-36.413,62.12c13.564,12.854,23.562,32.131,32.844,61.404l37.842,121.381
	c12.138,38.557,30.701,59.264,30.701,59.264h-54.977V691.506z M236.979,205.982H106.101V426.61h163.723l36.414-65.689
	c15.708-28.561,19.277-57.834,19.277-77.827C325.516,232.4,298.383,205.982,236.979,205.982z"/>
<path fill="#222222" d="M656.466,472.307H532.001v219.199h-52.836V208.838c0-29.274,19.992-48.552,52.121-48.552h122.287
	c85.682,0,139.945,68.544,139.945,154.225C793.519,400.905,739,472.307,656.466,472.307z M650.718,205.982H532.001v219.913h118.037
	c65.689-3.569,93.5-54.392,93.5-112.098C743.539,253.82,709.267,205.982,650.718,205.982z"/>
</svg>
