<?xml version="1.0" encoding="utf-8"?>
<!-- Generator: Adobe Illustrator 15.0.0, SVG Export Plug-In . SVG Version: 6.00 Build 0)  -->
<!DOCTYPE svg PUBLIC "-//W3C//DTD SVG 1.1//EN" "http://www.w3.org/Graphics/SVG/1.1/DTD/svg11.dtd">
<svg version="1.1" id="Layer_1" xmlns="http://www.w3.org/2000/svg" xmlns:xlink="http://www.w3.org/1999/xlink" x="0px" y="0px"
	 width="100px" height="100px" viewBox="0 0 100 100" enable-background="new 0 0 100 100" xml:space="preserve">
<g>
	<path fill="#222222" d="M60.721,72.123c-1.673-0.559-2.453-0.225-4.126,0l-6.246,0.891C32.282,75.58,24.475,63.98,26.147,50.486
		c1.562-12.714,10.595-21.971,27.771-20.075l5.576,0.558l0.446-3.457h11.71l-4.907,35.576c1.227,0.67,2.454,1.115,3.569,1.115
		c5.688,0,11.264-7.248,11.264-18.401c0-16.506-13.606-26.989-30-26.989c-20.075,0-33.458,13.941-33.458,32.678
		c0,18.178,14.722,34.795,37.138,29.219l9.926-2.453c4.35-1.115,9.146-1.338,13.829,1.227l7.026,3.793l-4.35,8.141l-7.249-3.234
		c-1.896-0.781-4.015-0.781-6.245-0.223l-9.703,2.342C26.482,97.996,6.185,76.025,6.185,50.598
		c0-25.316,18.959-43.049,45.392-43.049c24.089,0,41.71,15.837,41.71,38.365c0,17.51-11.599,28.215-23.644,28.215
		C66.074,74.129,63.62,73.572,60.721,72.123z M37.858,51.49c-0.892,6.691,2.007,12.268,11.264,11.264l6.134-0.67l3.012-20.854
		l-6.023-0.446C42.542,40.002,38.862,44.575,37.858,51.49z"/>
</g>
</svg>
