<?xml version="1.0" standalone="no"?>
<!DOCTYPE svg PUBLIC "-//W3C//DTD SVG 1.1//EN" "http://www.w3.org/Graphics/SVG/1.1/DTD/svg11.dtd" >
<svg>
<metadata>
Created by FontForge 20110222 at Thu Feb 13 04:46:54 2014
 By Orthosie Webhosting
Erstellt in Fontographer 3.5.1
</metadata>
<defs>
<font id="JuneBold" horiz-adv-x="590" >
  <font-face 
    font-family="JuneBold"
    font-weight="700"
    font-stretch="normal"
    units-per-em="1000"
    panose-1="2 0 8 3 0 0 0 0 0 0"
    ascent="800"
    descent="-200"
    x-height="544"
    cap-height="744"
    bbox="-140 -189 1297 960"
    underline-thickness="20"
    underline-position="-133"
    unicode-range="U+0020-20AC"
  />
<missing-glyph horiz-adv-x="500" 
d="M50 0v533h400v-533h-400zM100 50h300v433h-300v-433z" />
    <glyph glyph-name=".notdef" horiz-adv-x="500" 
d="M50 0v533h400v-533h-400zM100 50h300v433h-300v-433z" />
    <glyph glyph-name=".null" horiz-adv-x="0" 
 />
    <glyph glyph-name="nonmarkingreturn" horiz-adv-x="333" 
 />
    <glyph glyph-name="space" unicode=" " horiz-adv-x="259" 
 />
    <glyph glyph-name="exclam" unicode="!" horiz-adv-x="208" 
d="M171 208l-130 -22v558h130v-536zM171 45q0 -23 -17.5 -38.5t-47.5 -15.5t-47.5 15.5t-17.5 38.5t17.5 38.5t47.5 15.5t47.5 -15.5t17.5 -38.5z" />
    <glyph glyph-name="quotedbl" unicode="&#x22;" horiz-adv-x="383" 
d="M342 744l-7 -200h-109l-11 200h127zM177 744l-11 -200h-107l-10 200h128z" />
    <glyph glyph-name="numbersign" unicode="#" horiz-adv-x="706" 
d="M697 540l-19 -115h-132l-23 -115h136l-20 -115h-138l-38 -195h-127l38 195h-103l-41 -195h-130l42 195h-127l19 115h131l23 115h-135l20 115h138l40 204h127l-40 -204h103l40 204h126l-41 -204h131zM420 425h-104l-23 -115h104z" />
    <glyph glyph-name="dollar" unicode="$" 
d="M562 207q0 -102 -57.5 -155.5t-143.5 -62.5v-118h-120v119q-32 4 -63 15l-139 47l31 118l146 -49q43 -15 109 -15q49 0 81.5 20.5t32.5 67.5q0 17 -4 29.5t-21 27.5t-49 26l-172 59q-74 26 -112.5 77t-38.5 119q0 101 57 156t142 63v106h120v-109q27 -3 62 -15l134 -43
l-31 -114l-147 46q-57 12 -100 12q-114 0 -114 -89q0 -32 14.5 -52.5t58.5 -35.5l172 -59q152 -52 152 -191z" />
    <glyph glyph-name="percent" unicode="%" horiz-adv-x="901" 
d="M877 190q0 -91 -56.5 -149.5t-149.5 -58.5t-148.5 58.5t-55.5 149.5q0 90 56.5 148.5t149.5 58.5t148.5 -58.5t55.5 -148.5zM435 557q0 -91 -56.5 -149.5t-149.5 -58.5t-148.5 58.5t-55.5 149.5q0 90 57 148.5t149 58.5q93 0 148.5 -58.5t55.5 -148.5zM759 190
q0 46 -23 74.5t-65 28.5q-43 0 -64.5 -28.5t-21.5 -74.5q0 -47 23 -76t65 -29t64 28.5t22 76.5zM318 557q0 46 -23.5 74.5t-65.5 28.5t-63.5 -28t-21.5 -75t22.5 -76t64.5 -29q43 0 65 29t22 76zM810 723l-586 -702h-139l588 702h137z" />
    <glyph glyph-name="ampersand" unicode="&#x26;" horiz-adv-x="656" 
d="M664 0h-155l-40 45q-79 -57 -185 -57q-126 0 -188.5 58.5t-62.5 148.5q0 121 113 196l3 2q-37 43 -55.5 81.5t-18.5 88.5q0 93 64.5 143t162.5 50q96 0 154.5 -47t58.5 -132q0 -137 -123 -196l-50 -24l119 -132q5 25 5 47v125h119v-126q0 -82 -33 -141zM398 576
q0 30 -25 49.5t-71 19.5q-52 0 -80 -22t-28 -60q0 -30 16 -55t54 -64l72 34q62 29 62 98zM391 131l-163 176l-15 -9q-58 -34 -58 -102q0 -41 31 -68.5t98 -27.5q62 0 107 31z" />
    <glyph glyph-name="quotesingle" unicode="'" horiz-adv-x="208" 
d="M165 744l-10 -200h-98l-10 200h118z" />
    <glyph glyph-name="parenleft" unicode="(" horiz-adv-x="277" 
d="M57 93q0 -76 46 -121.5t118 -45.5h53v113h-53q-48 0 -48 54v507q0 54 48 54h53v113h-53q-78 0 -121 -44.5t-43 -122.5v-507z" />
    <glyph glyph-name="parenright" unicode=")" horiz-adv-x="277" 
d="M224 93q0 -76 -46 -121.5t-118 -45.5h-53v113h53q48 0 48 54v507q0 54 -48 54h-53v113h53q78 0 121 -44.5t43 -122.5v-507z" />
    <glyph glyph-name="asterisk" unicode="*" horiz-adv-x="551" 
d="M545 515l-176 -39l118 -129l-116 -76l-95 145l-93 -145l-116 77l117 129l-176 39l43 125l168 -66l-14 169h142l-14 -169l170 65z" />
    <glyph glyph-name="plus" unicode="+" horiz-adv-x="551" 
d="M533 238h-193v-191h-121v191h-189v113h189v189h121v-189h193v-113z" />
    <glyph glyph-name="comma" unicode="," horiz-adv-x="208" 
d="M180 80l-42 -130q-7 -22 -24.5 -32.5t-41.5 -6.5q-25 5 -36 23t-4 41l39 129z" />
    <glyph glyph-name="hyphen" unicode="-" horiz-adv-x="374" 
d="M355 279h-323v100h323v-100z" />
    <glyph glyph-name="period" unicode="." horiz-adv-x="208" 
d="M170 47q0 -24 -17.5 -40t-47.5 -16t-47.5 16t-17.5 40t17.5 40t47.5 16t47.5 -16t17.5 -40z" />
    <glyph glyph-name="slash" unicode="/" horiz-adv-x="410" 
d="M422 744l-308 -744h-126l310 744h124z" />
    <glyph glyph-name="zero" unicode="0" 
d="M541 264q0 -125 -64 -200t-184 -75q-119 0 -180 75t-61 203v211q0 125 64 200t184 75q119 0 180 -75t61 -203v-211zM416 264v214q0 162 -120 162q-65 0 -91.5 -42.5t-26.5 -119.5v-214q0 -77 27 -120t92 -43q119 0 119 163z" />
    <glyph glyph-name="one" unicode="1" 
d="M553 0h-495v115h211v513h-47q-68 0 -123 -27l-32 112q61 31 151 31h86q44 0 69.5 -24.5t25.5 -64.5v-540h154v-115z" />
    <glyph glyph-name="two" unicode="2" 
d="M538 542q0 -59 -26 -113.5t-101 -127.5l-192 -189h320v-112h-423q-52 0 -68 47t25 88l248 247q48 48 67.5 81t19.5 74q0 52 -30 74.5t-75 22.5q-57 0 -105 -15l-130 -39l-31 113l119 37q65 21 148 21q101 0 167.5 -50t66.5 -159z" />
    <glyph glyph-name="three" unicode="3" 
d="M555 200q0 -92 -65.5 -150t-177.5 -58q-76 0 -128 15l-150 43l26 115l154 -45q46 -14 95 -14q63 0 93.5 25t30.5 66q0 30 -18 62l-24 41q-11 19 -35 19h-146v112h158l24 49q20 40 20 76q0 79 -105 79q-44 0 -81 -10l-154 -40l-27 112l150 40q51 14 114 14
q108 0 167.5 -50t59.5 -142q0 -58 -34 -117l-32 -55q18 -11 35 -43l21 -41q29 -58 29 -103z" />
    <glyph glyph-name="four" unicode="4" 
d="M575 131h-74v-131h-121v131h-278q-50 0 -68.5 40.5t10.5 86.5l282 445q24 38 66.5 45.5t75.5 -15t33 -62.5v-428h74v-112zM380 243v329l-200 -329h200z" />
    <glyph glyph-name="five" unicode="5" 
d="M557 244q0 -111 -70 -181.5t-193 -70.5q-58 0 -107 14l-140 39l27 117l146 -43q42 -12 72 -12q73 0 107.5 37.5t34.5 99.5q0 76 -35.5 107.5t-107.5 31.5q-35 0 -88 -11l-127 -28v400h450v-118h-333v-145l9 3q44 15 105 15q250 0 250 -255z" />
    <glyph glyph-name="six" unicode="6" 
d="M558 248q0 -113 -66 -183.5t-189 -70.5q-120 0 -187.5 73t-67.5 192v238q0 116 64 184.5t180 68.5q64 0 111 -14l150 -43l-32 -112l-150 43q-33 9 -71 9q-130 0 -130 -134v-13l90 9q155 15 226.5 -54.5t71.5 -192.5zM435 248q0 151 -164 137l-101 -9v-114
q0 -72 34.5 -113.5t102.5 -41.5q62 0 95 38t33 103z" />
    <glyph glyph-name="seven" unicode="7" 
d="M551 624l-263 -624h-137l268 630h-368v114h437q48 0 65.5 -38t-2.5 -82z" />
    <glyph glyph-name="eight" unicode="8" 
d="M559 203q0 -93 -63.5 -153t-198.5 -60q-133 0 -198 60t-65 153q0 68 40 126l41 61q-10 10 -16 23l-22 44q-22 44 -22 100q0 94 66 144.5t173 50.5q111 0 175 -49t64 -145q0 -60 -29 -110l-30 -53q16 -12 32 -39l20 -33q33 -54 33 -120zM412 557q0 83 -118 83
q-59 0 -88.5 -22.5t-29.5 -60.5q0 -31 13 -59l19 -42q8 -18 31 -18h134l24 51q15 32 15 68zM438 204q0 37 -22 75l-18 30q-11 19 -34 19h-156l-31 -50q-20 -32 -20 -74q0 -43 33.5 -73t106.5 -30q76 0 108.5 29.5t32.5 73.5z" />
    <glyph glyph-name="nine" unicode="9" 
d="M35 496q0 113 66 183.5t189 70.5q120 0 187.5 -73t67.5 -192v-238q0 -116 -64 -184.5t-180 -68.5q-63 0 -111 14l-150 43l32 112l150 -42q33 -10 73 -10q128 0 128 134v13l-90 -9q-155 -15 -226.5 54.5t-71.5 192.5zM158 496q0 -151 164 -137l101 9v114q0 72 -34.5 113.5
t-102.5 41.5q-62 0 -95 -38t-33 -103z" />
    <glyph glyph-name="colon" unicode=":" horiz-adv-x="208" 
d="M170 47q0 -24 -17.5 -40t-47.5 -16t-47.5 16t-17.5 40t17.5 40t47.5 16t47.5 -16t17.5 -40zM170 481q0 -24 -17.5 -40t-47.5 -16t-47.5 16t-17.5 40t17.5 40t47.5 16t47.5 -16t17.5 -40z" />
    <glyph glyph-name="semicolon" unicode=";" horiz-adv-x="208" 
d="M180 80l-42 -130q-7 -22 -24.5 -32.5t-41.5 -6.5q-25 5 -36 23t-4 41l39 129zM184 481q0 -24 -17.5 -40t-47.5 -16t-47.5 16t-17.5 40t17.5 40t47.5 16t47.5 -16t17.5 -40z" />
    <glyph glyph-name="less" unicode="&#x3c;" horiz-adv-x="551" 
d="M534 61l-470 168q-33 12 -46 38.5t-0.5 53.5t46.5 39l470 169v-121l-340 -115l340 -114v-118z" />
    <glyph glyph-name="equal" unicode="=" horiz-adv-x="551" 
d="M535 313h-503v105h503v-105zM535 144h-503v105h503v-105z" />
    <glyph glyph-name="greater" unicode="&#x3e;" horiz-adv-x="551" 
d="M18 61l470 168q33 12 46 38.5t0.5 53.5t-46.5 39l-470 169v-121l340 -115l-340 -114v-118z" />
    <glyph glyph-name="question" unicode="?" horiz-adv-x="457" 
d="M440 557q0 -31 -12 -73t-39 -71l-107 -115v-91l-118 -21v90q0 40 7 59.5t31 46.5l93 103q27 31 27 75q0 30 -23.5 49t-63.5 19q-48 0 -92 -12l-104 -27l-25 116l103 28q53 14 121 14q90 0 146 -51.5t56 -138.5zM286 45q0 -23 -17 -38.5t-46 -15.5q-28 0 -45 15.5
t-17 38.5t17 39t45 16q29 0 46 -16t17 -39z" />
    <glyph glyph-name="at" unicode="@" horiz-adv-x="933" 
d="M647 151q-44 0 -80 18q-11 4 -37 0l-56 -8q-115 -16 -172 44.5t-45 157.5q11 91 75 141.5t174 38.5l50 -5l4 31h105l-44 -319q18 -10 32 -10q40 0 70.5 46.5t30.5 118.5q0 108 -78 175t-191 67q-134 0 -217 -83t-83 -210q0 -61 24 -116.5t67.5 -94.5t105 -54t136.5 3
l89 22q71 18 124 -11l63 -34l-39 -73l-65 29q-24 10 -56 2l-87 -21q-108 -25 -194.5 -5.5t-147.5 72t-94 128t-33 161.5q0 170 114.5 278t292.5 108q163 0 268.5 -96.5t105.5 -247.5q0 -113 -63.5 -183t-148.5 -70zM491 450q-114 9 -129 -96q-7 -49 17.5 -78t83.5 -23l55 6
l27 187z" />
    <glyph glyph-name="A" unicode="A" horiz-adv-x="649" 
d="M658 0h-138l-55 157h-281l-56 -157h-135l248 693q13 36 49.5 50.5t73 0.5t49.5 -50zM425 269l-98 305l-103 -305h201z" />
    <glyph glyph-name="B" unicode="B" horiz-adv-x="675" 
d="M635 205q0 -92 -60 -148.5t-162 -56.5h-259q-45 0 -70.5 24.5t-25.5 65.5v565q0 40 25.5 64.5t70.5 24.5h233q214 0 214 -186q0 -65 -25 -116l-23 -48q21 -18 35 -44l24 -47q23 -45 23 -98zM474 556q0 78 -93 78h-194v-199h255l17 44q15 40 15 77zM507 203q0 29 -14 57
l-22 44q-11 21 -36 21h-248v-214h220q50 0 75 25.5t25 66.5z" />
    <glyph glyph-name="C" unicode="C" horiz-adv-x="663" 
d="M626 691l-33 -115l-149 44q-35 10 -79 10q-93 0 -144 -70t-51 -190t53.5 -191t144.5 -71q46 0 77 10l147 45l33 -111l-150 -46q-47 -14 -107 -14q-149 0 -240.5 102.5t-91.5 275.5q0 172 92.5 275t238.5 103q62 0 108 -13z" />
    <glyph glyph-name="D" unicode="D" horiz-adv-x="690" 
d="M653 370q0 -163 -93.5 -266.5t-245.5 -103.5h-160q-45 0 -70.5 24.5t-25.5 65.5v565q0 40 26 64.5t70 24.5h165q150 0 242 -104.5t92 -269.5zM521 370q0 115 -57 189.5t-159 74.5h-121v-522h128q99 0 154 71t55 187z" />
    <glyph glyph-name="E" unicode="E" horiz-adv-x="606" 
d="M569 0h-415q-45 0 -70.5 24.5t-25.5 65.5v565q0 40 25.5 64.5t70.5 24.5h412v-112h-378v-195h339v-112h-339v-213h381v-112z" />
    <glyph glyph-name="F" unicode="F" horiz-adv-x="581" 
d="M556 632h-368v-209h337v-112h-337v-311h-130v655q0 40 25.5 64.5t69.5 24.5h403v-112z" />
    <glyph glyph-name="G" unicode="G" horiz-adv-x="698" 
d="M658 692l-34 -115l-176 44q-42 10 -79 10q-95 0 -147.5 -69t-52.5 -192q0 -117 52.5 -190t153.5 -73q28 0 52 4l93 14v172h-171v113h205q44 0 69 -24.5t25 -64.5v-211q0 -82 -84 -94l-123 -18q-38 -5 -71 -5q-63 0 -121 22t-106.5 65.5t-77.5 118.5t-29 171
q0 173 93.5 275.5t241.5 102.5q73 0 108 -12z" />
    <glyph glyph-name="H" unicode="H" horiz-adv-x="674" 
d="M618 0h-130v324h-300v-324h-130v744h130v-308h300v308h130v-744z" />
    <glyph glyph-name="I" unicode="I" horiz-adv-x="248" 
d="M194 0h-137v744h137v-744z" />
    <glyph glyph-name="J" unicode="J" horiz-adv-x="369" 
d="M318 201q0 -126 -67.5 -171t-173.5 -29l-84 13l22 117l82 -13q53 -8 68 13t15 70v543h138v-543z" />
    <glyph glyph-name="K" unicode="K" horiz-adv-x="660" 
d="M652 0h-147q-19 17 -44 73l-142 316l-78 -74q-31 -30 -43.5 -52t-12.5 -61v-202h-127v744h127v-339l299 339h166l-234 -261l167 -372q12 -27 29.5 -54.5t28.5 -42.5z" />
    <glyph glyph-name="L" unicode="L" horiz-adv-x="565" 
d="M539 0h-386q-44 0 -69.5 24.5t-25.5 65.5v654h131v-631h350v-113z" />
    <glyph glyph-name="M" unicode="M" horiz-adv-x="822" 
d="M758 -2h-119v544l-157 -496q-11 -34 -44 -46t-65.5 1.5t-42.5 44.5l-154 494v-542h-118v668q0 37 26.5 59.5t60.5 25t67.5 -17t44.5 -57.5l151 -502l155 502q9 31 32.5 50t50.5 22t52.5 -3.5t42.5 -28t17 -50.5v-668z" />
    <glyph glyph-name="N" unicode="N" horiz-adv-x="695" 
d="M642 68q0 -42 -30 -62.5t-67.5 -11.5t-57.5 42l-307 490v-526h-122v675q0 43 29.5 64t67 12t58.5 -43l307 -493v529h122v-676z" />
    <glyph glyph-name="O" unicode="O" horiz-adv-x="740" 
d="M709 370q0 -171 -93.5 -274.5t-245.5 -103.5q-150 0 -242 104t-92 274q0 169 94 273.5t245 104.5q150 0 242 -104t92 -274zM577 370q0 119 -54.5 192t-152.5 73t-151 -72.5t-53 -192.5t55.5 -193.5t153.5 -73.5q97 0 149.5 72.5t52.5 194.5z" />
    <glyph glyph-name="P" unicode="P" horiz-adv-x="601" 
d="M582 517q0 -98 -60.5 -162t-162.5 -64h-173v-291h-130v655q0 40 25.5 64.5t69.5 24.5h218q96 0 154.5 -64.5t58.5 -162.5zM459 518q0 49 -27.5 82.5t-73.5 33.5h-172v-232h166q52 0 79.5 32.5t27.5 83.5z" />
    <glyph glyph-name="Q" unicode="Q" horiz-adv-x="744" 
d="M708 368q0 -211 -144 -308q44 -6 72 -6h58v-112h-58q-59 0 -138 23.5t-122 23.5q-155 0 -247.5 105t-92.5 274t94 274.5t245 105.5q150 0 241.5 -104.5t91.5 -275.5zM579 368q0 119 -55.5 192t-153.5 73t-151.5 -72t-53.5 -193q0 -120 56 -194t154 -74t151 73t53 195z
" />
    <glyph glyph-name="R" unicode="R" horiz-adv-x="666" 
d="M654 0h-136q-22 23 -38 77l-50 168q-12 40 -44 40h-201v-285h-129v655q0 40 25 64.5t69 24.5h235q211 0 211 -186q0 -77 -43 -149l-38 -64q24 -20 39 -75l44 -158q8 -31 22 -59t24 -41zM469 558q0 76 -90 76h-194v-237h227l36 72q21 42 21 89z" />
    <glyph glyph-name="S" unicode="S" horiz-adv-x="625" 
d="M596 207q0 -57 -22 -100t-59 -67.5t-80 -36t-90 -11.5q-92 0 -157 20l-146 46l33 119l152 -46q58 -18 125 -18q116 0 116 80q0 27 -17 47.5t-65 35.5l-182 57q-78 25 -119 77t-41 119q0 60 21.5 104t58 68.5t78 36t88.5 11.5q84 0 157 -21l144 -43l-34 -118l-154 45
q-61 17 -118 17q-112 0 -112 -82q0 -63 79 -88l182 -58q162 -52 162 -194z" />
    <glyph glyph-name="T" unicode="T" horiz-adv-x="611" 
d="M593 632h-218v-632h-131v632h-223v112h572v-112z" />
    <glyph glyph-name="U" unicode="U" horiz-adv-x="666" 
d="M616 271q0 -132 -75.5 -208.5t-205.5 -76.5q-129 0 -205 75.5t-76 209.5v473h130v-473q0 -82 38 -126t113 -44q151 0 151 170v473h130v-473z" />
    <glyph glyph-name="V" unicode="V" horiz-adv-x="618" 
d="M621 744l-235 -697q-11 -33 -43.5 -46t-65.5 0t-44 46l-231 697h137l173 -558l174 558h135z" />
    <glyph glyph-name="W" unicode="W" horiz-adv-x="856" 
d="M834 744l-88 -693q-4 -28 -27.5 -44.5t-51.5 -18.5t-54.5 12.5t-34.5 42.5l-147 515l-150 -515q-10 -37 -49 -49t-75.5 5t-40.5 53l-82 692h125l57 -544l144 497q10 33 43 45.5t66.5 -0.5t42.5 -46l138 -497l60 545h124z" />
    <glyph glyph-name="X" unicode="X" horiz-adv-x="651" 
d="M642 0h-148l-167 278l-172 -278h-144l240 375l-237 369h146l170 -269l166 269h143l-234 -367z" />
    <glyph glyph-name="Y" unicode="Y" horiz-adv-x="649" 
d="M647 744l-253 -396v-348h-133v346l-258 398h149l178 -279l169 279h148z" />
    <glyph glyph-name="Z" unicode="Z" horiz-adv-x="622" 
d="M583 0h-471q-49 0 -67.5 44t11.5 83l373 505h-380v112h466q49 0 66.5 -44t-12.5 -83l-373 -505h387v-112z" />
    <glyph glyph-name="bracketleft" unicode="[" horiz-adv-x="277" 
d="M56 -74h217v113h-101v615h101v113h-217v-841z" />
    <glyph glyph-name="backslash" unicode="\" horiz-adv-x="410" 
d="M-12 744l308 -744h126l-310 744h-124z" />
    <glyph glyph-name="bracketright" unicode="]" horiz-adv-x="277" 
d="M224 -74h-217v113h101v615h-101v113h217v-841z" />
    <glyph glyph-name="asciicircum" unicode="^" horiz-adv-x="551" 
d="M532 43h-128l-130 327l-128 -327h-126l188 454q20 47 68 46t67 -46z" />
    <glyph glyph-name="underscore" unicode="_" horiz-adv-x="551" 
d="M575 -164h-603v67h603v-67z" />
    <glyph glyph-name="grave" unicode="`" horiz-adv-x="542" 
d="M369 743q31 -12 24 -42q-7 -27 -36 -33q-14 -3 -29 2l-166 51l51 85z" />
    <glyph glyph-name="a" unicode="a" horiz-adv-x="585" 
d="M581 83l-47 -93l-67 29q-21 10 -61 3l-113 -20q-118 -21 -187.5 29.5t-69.5 132.5q0 90 64 132t166 42h129v25q0 79 -90 79q-45 0 -93 -10l-142 -31l-23 103l139 34q51 12 120 12q93 0 149.5 -45t56.5 -144v-243zM395 120v123h-130q-107 0 -107 -74q0 -39 32 -58t90 -10z
" />
    <glyph glyph-name="b" unicode="b" 
d="M562 272q0 -61 -19 -113t-56.5 -92t-98 -59t-137.5 -10l-106 12q-40 4 -63.5 29t-23.5 62v644l122 25v-234l75 9q75 9 135 -9.5t96.5 -58t56 -92t19.5 -113.5zM439 272q0 80 -41.5 126.5t-132.5 38.5l-85 -8v-315l86 -10q89 -10 131 39t42 129z" />
    <glyph glyph-name="c" unicode="c" horiz-adv-x="518" 
d="M505 506l-25 -108l-136 35q-28 7 -58 7q-65 0 -100 -47t-35 -121q0 -72 37.5 -120.5t101.5 -48.5q31 0 54 7l136 39l23 -108l-131 -37q-37 -10 -84 -10q-117 0 -189 79.5t-72 198.5q0 118 73.5 198t187.5 80q48 0 86 -10z" />
    <glyph glyph-name="d" unicode="d" 
d="M535 101q0 -37 -23.5 -62t-63.5 -29l-106 -12q-77 -9 -137.5 10t-98 59t-56.5 92t-19 113t19.5 113.5t56 92t96.5 58t135 9.5l75 -9v209l122 25v-669zM413 429l-85 8q-91 8 -132.5 -38.5t-41.5 -126.5t42 -129t131 -39l86 10v315z" />
    <glyph glyph-name="e" unicode="e" horiz-adv-x="580" 
d="M552 278q-2 -57 -59 -57h-336q9 -55 47.5 -87t89.5 -32q45 0 90 11l141 36l26 -107l-141 -35q-55 -13 -118 -13q-119 0 -191.5 77t-72.5 200q0 130 77.5 205.5t187.5 75.5q119 0 190 -71t69 -203zM431 319q-7 58 -41.5 95t-97.5 37q-55 0 -91.5 -37t-44.5 -95h275z" />
    <glyph glyph-name="f" unicode="f" horiz-adv-x="373" 
d="M398 748l-18 -112l-84 13q-29 5 -47.5 0.5t-26 -18.5t-9.5 -27.5t-2 -37.5v-31h152v-108h-152v-427h-124v427h-77v108h77v31q0 227 228 194z" />
    <glyph glyph-name="g" unicode="g" horiz-adv-x="639" 
d="M620 483l-93 -27q28 -35 28 -88q0 -87 -66.5 -131.5t-189.5 -44.5l-53 3q13 -30 -8 -63h198q175 0 175 -139q0 -44 -23.5 -77.5t-57 -51.5t-78.5 -28.5t-79 -13.5t-69 -3q-39 0 -76.5 5.5t-83 19.5t-73 46.5t-27.5 79.5q0 48 36 97l56 74q17 22 17.5 40t-11 30t-28.5 28
t-33.5 31.5t-28.5 42.5t-12 59q0 60 36 100.5t85.5 56t109.5 15.5h96q76 0 101 7l123 36zM440 367q0 85 -142 85t-142 -83q0 -44 38.5 -65.5t103.5 -21.5q142 0 142 85zM496 -12q0 49 -67 49h-245l-11 -15q-16 -22 -16 -50q0 -56 154 -56h8q33 0 54.5 1.5t54.5 7t50.5 22
t17.5 41.5z" />
    <glyph glyph-name="h" unicode="h" horiz-adv-x="570" 
d="M520 0h-122v346q0 104 -123 91l-90 -9v-428h-125v745l124 25v-233l80 10q137 17 196.5 -41.5t59.5 -160.5v-345z" />
    <glyph glyph-name="i" unicode="i" horiz-adv-x="262" 
d="M210 692q0 -34 -20.5 -56t-55.5 -22q-34 0 -54.5 22t-20.5 56t20.5 56t54.5 22q35 0 55.5 -22t20.5 -56zM199 0h-129v544h129v-544z" />
    <glyph glyph-name="j" unicode="j" horiz-adv-x="256" 
d="M196 22q0 -64 -19.5 -108.5t-52.5 -65t-78 -28t-96 2.5l-90 14l20 113l90 -14q62 -9 80.5 14t18.5 72v522h127v-522zM206 692q0 -34 -20.5 -56t-55.5 -22q-34 0 -54.5 22t-20.5 56t20.5 56t54.5 22q35 0 55.5 -22t20.5 -56z" />
    <glyph glyph-name="k" unicode="k" horiz-adv-x="554" 
d="M553 544l-180 -178l176 -366h-136l-134 282l-45 -40q-21 -18 -30.5 -29t-17 -30.5t-7.5 -46.5v-136h-123v745l123 25v-443l212 217h162z" />
    <glyph glyph-name="l" unicode="l" horiz-adv-x="270" 
d="M200 0h-127v745l127 26v-771z" />
    <glyph glyph-name="m" unicode="m" horiz-adv-x="861" 
d="M804 0h-122v347q0 46 -24 69t-86 14l-87 -13q8 -22 8 -70v-347h-121v347q0 47 -24.5 70.5t-88.5 17.5l-78 -8v-427h-122v445q0 36 22.5 60.5t62.5 28.5l95 11q126 15 183 -30l128 25q111 21 182.5 -24t71.5 -169v-347z" />
    <glyph glyph-name="n" unicode="n" horiz-adv-x="570" 
d="M520 0h-122v348q0 102 -123 89l-90 -9v-428h-125v446q0 36 22.5 60.5t62.5 28.5l115 12q71 8 123 -5t81 -42.5t42.5 -67.5t13.5 -85v-347z" />
    <glyph glyph-name="o" unicode="o" horiz-adv-x="594" 
d="M565 272q0 -123 -73.5 -200.5t-195.5 -77.5q-121 0 -193 78t-72 200q0 121 74 199.5t195 78.5t193 -77.5t72 -200.5zM442 272q0 76 -38.5 125.5t-107.5 49.5t-105 -49t-36 -126q0 -76 38 -126t107 -50q70 0 106 49t36 127z" />
    <glyph glyph-name="p" unicode="p" 
d="M56 442q0 37 23.5 62t63.5 29l106 12q78 9 139.5 -10t98 -59t55 -92t18.5 -113t-19.5 -113.5t-56 -92t-96.5 -58t-135 -9.5l-75 9v-169l-122 -25v629zM178 114l85 -8q91 -8 132.5 38.5t41.5 126.5t-41.5 129t-131.5 39l-86 -9v-316z" />
    <glyph glyph-name="q" unicode="q" 
d="M29 271q0 61 19 113t56 91.5t97.5 58.5t138.5 11l106 -11q40 -5 63.5 -28.5t23.5 -62.5v-605l-122 -25v196l-75 -9q-147 -18 -227 62.5t-80 208.5zM152 271q0 -80 41.5 -125.5t132.5 -37.5l85 8v313l-86 10q-89 10 -131 -39t-42 -129z" />
    <glyph glyph-name="r" unicode="r" horiz-adv-x="348" 
d="M360 532l-18 -111q-54 16 -122 8l-52 -6v-423h-118v444q0 80 82 90l75 9q94 11 153 -11z" />
    <glyph glyph-name="s" unicode="s" horiz-adv-x="545" 
d="M511 157q0 -84 -61 -124t-147 -40q-81 0 -131 14l-126 36l28 106l134 -35q46 -13 96 -13q85 0 85 42q0 34 -53 48l-150 40q-139 38 -139 152q0 86 60.5 126t147.5 40q79 0 131 -14l122 -32l-28 -107l-125 33q-43 12 -107 12q-80 0 -80 -46q0 -36 53 -49l148 -38
q142 -37 142 -151z" />
    <glyph glyph-name="t" unicode="t" horiz-adv-x="421" 
d="M406 10l-83 -12q-229 -33 -229 187v242h-83v108h83v126l120 25v-151h171v-108h-171v-246q0 -43 18 -63t72 -11l86 14z" />
    <glyph glyph-name="u" unicode="u" horiz-adv-x="570" 
d="M55 544h122v-348q0 -102 123 -89l90 9v428h125v-446q0 -36 -22.5 -60.5t-62.5 -28.5l-115 -12q-71 -8 -123 5t-81 42.5t-42.5 67.5t-13.5 85v347z" />
    <glyph glyph-name="v" unicode="v" horiz-adv-x="537" 
d="M534 544l-187 -503q-12 -33 -46 -45.5t-67 0.5t-44 45l-178 503h136l123 -386l130 386h133z" />
    <glyph glyph-name="w" unicode="w" horiz-adv-x="800" 
d="M788 544l-114 -495q-6 -27 -28 -42.5t-46.5 -16.5t-48 12.5t-32.5 40.5l-109 322l-115 -321q-13 -35 -50 -47t-72.5 4t-43.5 52l-111 491h129l74 -395l119 352q8 23 27.5 35.5t40.5 12.5t41 -12.5t28 -35.5l112 -314l72 357h127z" />
    <glyph glyph-name="x" unicode="x" horiz-adv-x="535" 
d="M535 0h-144l-121 185l-122 -185h-142l191 273l-186 271h144l118 -178l112 178h142l-182 -265z" />
    <glyph glyph-name="y" unicode="y" horiz-adv-x="537" 
d="M530 544l-206 -616q-45 -133 -217 -104l-81 14l19 109l82 -13q33 -5 53 2t24.5 14.5t8.5 20.5l6 19l-212 554h133l140 -393l119 393h131z" />
    <glyph glyph-name="z" unicode="z" horiz-adv-x="540" 
d="M502 0h-389q-49 0 -68 43.5t12 78.5l278 318h-295v104h382q50 0 68.5 -43.5t-12.5 -78.5l-275 -316h299v-106z" />
    <glyph glyph-name="braceleft" unicode="{" horiz-adv-x="271" 
d="M45 296q34 -1 48.5 -9.5t9.5 -24.5l-32 -96q-35 -106 7 -173t127 -67h62v115h-62q-26 0 -33.5 25.5t5.5 68.5l29 97q19 61 -15 109q34 48 15 111l-29 97q-13 43 -5.5 68t33.5 25h62v115h-62q-85 0 -127 -67t-7 -173l32 -96q5 -15 -10 -24t-48 -10v-91z" />
    <glyph glyph-name="bar" unicode="|" horiz-adv-x="217" 
d="M158 -180h-98v952h98v-952z" />
    <glyph glyph-name="braceright" unicode="}" horiz-adv-x="271" 
d="M232 296q-34 -1 -48.5 -9.5t-9.5 -24.5l32 -96q35 -106 -7 -173t-127 -67h-62v115h62q26 0 33.5 25.5t-5.5 68.5l-29 97q-19 61 15 109q-34 48 -15 111l29 97q13 43 5.5 68t-33.5 25h-62v115h62q85 0 127 -67t7 -173l-32 -96q-5 -15 10 -24t48 -10v-91z" />
    <glyph glyph-name="asciitilde" unicode="~" horiz-adv-x="535" 
d="M538 332l-46 -54q-43 -50 -104 -61t-124 26l-63 40q-41 27 -72 -9l-44 -53l-91 56l48 53q45 49 105.5 59t121.5 -27l63 -40q39 -24 71 12l48 53z" />
    <glyph glyph-name="uni0080" horiz-adv-x="649" 
d="M658 0h-138l-55 157h-281l-56 -157h-135l248 693q13 36 49.5 50.5t73 0.5t49.5 -50zM425 269l-98 305l-103 -305h201zM507 873q0 -23 -19.5 -39t-51.5 -16t-51.5 16t-19.5 39t19.5 39t51.5 16t51.5 -16t19.5 -39zM293 873q0 -23 -19.5 -39t-51.5 -16t-51.5 16t-19.5 39
t19.5 39t51.5 16t51.5 -16t19.5 -39z" />
    <glyph glyph-name="uni0081" horiz-adv-x="649" 
d="M658 0h-133l-55 159h-291l-56 -159h-130l247 683q-46 32 -46 97q0 55 35.5 89t91.5 34h12q57 0 92.5 -34t35.5 -89q0 -63 -46 -96zM362 780q0 29 -29 29h-12q-12 0 -20 -8.5t-8 -20.5q0 -13 8 -22t20 -9h12q14 0 21.5 9t7.5 22zM432 272l-105 317l-108 -317h213z" />
    <glyph glyph-name="uni0082" horiz-adv-x="663" 
d="M626 691l-33 -115l-149 44q-35 10 -79 10q-93 0 -144 -70t-51 -190t53.5 -191t144.5 -71q46 0 77 10l147 45l33 -111l-150 -46q-47 -14 -107 -14q-149 0 -240.5 102.5t-91.5 275.5q0 172 92.5 275t238.5 103q62 0 108 -13zM472 -104q0 -37 -28 -61t-81 -24q-29 0 -46 5
l-61 17l27 74l56 -13q18 -2 23 -2q2 0 8 -0.5t8 0t2 3.5q0 5 -2.5 6.5t-9 1t-13.5 -2t-19.5 -3t-23.5 -2.5l-17 27l48 86h90l-22 -43q61 -14 61 -69z" />
    <glyph glyph-name="uni0083" horiz-adv-x="606" 
d="M569 0h-415q-45 0 -70.5 24.5t-25.5 65.5v565q0 40 25.5 64.5t70.5 24.5h412v-112h-378v-195h339v-112h-339v-213h381v-112zM232 883q-31 -12 -24 -42q7 -27 36 -33q14 -3 29 2l166 51l-51 85z" />
    <glyph glyph-name="uni0084" horiz-adv-x="685" 
d="M642 68q0 -42 -30 -62.5t-67.5 -11.5t-57.5 42l-307 490v-526h-122v675q0 43 29.5 64t67 12t58.5 -43l307 -493v529h122v-676zM590 901l-40 -48q-32 -38 -85 -47t-110 18l-53 27q-32 16 -52 -8l-37 -42l-86 41l38 44q35 41 86.5 49t107.5 -19l54 -27q29 -14 52 9l40 43z
" />
    <glyph glyph-name="uni0085" unicode="&#x85;" horiz-adv-x="760" 
d="M709 370q0 -171 -93.5 -274.5t-245.5 -103.5q-150 0 -242 104t-92 274q0 169 94 273.5t245 104.5q150 0 242 -104t92 -274zM577 370q0 119 -54.5 192t-152.5 73t-151 -72.5t-53 -192.5t55.5 -193.5t153.5 -73.5q97 0 149.5 72.5t52.5 194.5zM560 873q0 -23 -19.5 -39
t-51.5 -16t-51.5 16t-19.5 39t19.5 39t51.5 16t51.5 -16t19.5 -39zM346 873q0 -23 -19.5 -39t-51.5 -16t-51.5 16t-19.5 39t19.5 39t51.5 16t51.5 -16t19.5 -39z" />
    <glyph glyph-name="uni0086" horiz-adv-x="666" 
d="M616 271q0 -132 -75.5 -208.5t-205.5 -76.5q-129 0 -205 75.5t-76 209.5v473h130v-473q0 -82 38 -126t113 -44q151 0 151 170v473h130v-473zM515 873q0 -23 -19.5 -39t-51.5 -16t-51.5 16t-19.5 39t19.5 39t51.5 16t51.5 -16t19.5 -39zM301 873q0 -23 -19.5 -39
t-51.5 -16t-51.5 16t-19.5 39t19.5 39t51.5 16t51.5 -16t19.5 -39z" />
    <glyph glyph-name="uni0087" horiz-adv-x="585" 
d="M581 83l-47 -93l-67 29q-21 10 -61 3l-113 -20q-118 -21 -187.5 29.5t-69.5 132.5q0 90 64 132t166 42h129v25q0 79 -90 79q-45 0 -93 -10l-142 -31l-23 103l139 34q51 12 120 12q93 0 149.5 -45t56.5 -144v-243zM395 120v123h-130q-107 0 -107 -74q0 -39 32 -58t90 -10z
M201 743q-31 -12 -24 -42q7 -27 36 -33q14 -3 29 2l166 51l-51 85z" />
    <glyph glyph-name="uni0088" horiz-adv-x="585" 
d="M581 83l-47 -93l-67 29q-21 10 -61 3l-113 -20q-118 -21 -187.5 29.5t-69.5 132.5q0 90 64 132t166 42h129v25q0 79 -90 79q-45 0 -93 -10l-142 -31l-23 103l139 34q51 12 120 12q93 0 149.5 -45t56.5 -144v-243zM395 120v123h-130q-107 0 -107 -74q0 -39 32 -58t90 -10z
M363 743q31 -12 24 -42q-7 -27 -36 -33q-14 -3 -29 2l-166 51l51 85z" />
    <glyph glyph-name="uni0089" horiz-adv-x="585" 
d="M581 83l-47 -93l-67 29q-21 10 -61 3l-113 -20q-118 -21 -187.5 29.5t-69.5 132.5q0 90 64 132t166 42h129v25q0 79 -90 79q-45 0 -93 -10l-142 -31l-23 103l139 34q51 12 120 12q93 0 149.5 -45t56.5 -144v-243zM395 120v123h-130q-107 0 -107 -74q0 -39 32 -58t90 -10z
M482 727l-50 -68l-144 57l-144 -56l-49 68l194 91z" />
    <glyph glyph-name="uni008A" horiz-adv-x="585" 
d="M581 83l-47 -93l-67 29q-21 10 -61 3l-113 -20q-118 -21 -187.5 29.5t-69.5 132.5q0 90 64 132t166 42h129v25q0 79 -90 79q-45 0 -93 -10l-142 -31l-23 103l139 34q51 12 120 12q93 0 149.5 -45t56.5 -144v-243zM395 120v123h-130q-107 0 -107 -74q0 -39 32 -58t90 -10z
M465 697q0 -23 -19.5 -39t-51.5 -16t-51.5 16t-19.5 39t19.5 39t51.5 16t51.5 -16t19.5 -39zM251 697q0 -23 -19.5 -39t-51.5 -16t-51.5 16t-19.5 39t19.5 39t51.5 16t51.5 -16t19.5 -39z" />
    <glyph glyph-name="uni008B" horiz-adv-x="585" 
d="M581 83l-47 -93l-67 29q-21 10 -61 3l-113 -20q-118 -21 -187.5 29.5t-69.5 132.5q0 90 64 132t166 42h129v25q0 79 -90 79q-45 0 -93 -10l-142 -31l-23 103l139 34q51 12 120 12q93 0 149.5 -45t56.5 -144v-243zM395 120v123h-130q-107 0 -107 -74q0 -39 32 -58t90 -10z
M518 773l-40 -48q-32 -38 -85 -47t-110 18l-53 27q-32 16 -52 -8l-37 -42l-86 41l38 44q35 41 86.5 49t107.5 -19l54 -27q29 -14 52 9l40 43z" />
    <glyph glyph-name="uni008C" horiz-adv-x="585" 
d="M581 83l-47 -93l-67 29q-21 10 -61 3l-113 -20q-118 -21 -187.5 29.5t-69.5 132.5q0 90 64 132t166 42h129v25q0 79 -90 79q-45 0 -93 -10l-142 -31l-23 103l139 34q51 12 120 12q93 0 149.5 -45t56.5 -144v-243zM395 120v123h-130q-107 0 -107 -74q0 -39 32 -58t90 -10z
M418 712q0 -47 -34 -75.5t-89 -28.5h-11q-53 0 -88 29.5t-35 74.5q0 46 34 74.5t89 28.5h11q56 0 89.5 -28.5t33.5 -74.5zM323 712q0 23 -28 23h-11q-13 0 -20.5 -6.5t-7.5 -16.5t8 -17t20 -7h11q28 0 28 24z" />
    <glyph glyph-name="uni008D" horiz-adv-x="518" 
d="M505 506l-25 -108l-136 35q-28 7 -58 7q-65 0 -100 -47t-35 -121q0 -72 37.5 -120.5t101.5 -48.5q31 0 54 7l136 39l23 -108l-131 -37q-37 -10 -84 -10q-117 0 -189 79.5t-72 198.5q0 118 73.5 198t187.5 80q48 0 86 -10zM385 -98q0 -37 -28 -61t-81 -24q-28 0 -46 5
l-61 17l27 74l56 -13q18 -2 23 -2q2 0 8 -0.5t8 0t2 3.5q0 5 -2.5 6.5t-9 1t-13.5 -2t-19.5 -3t-23.5 -2.5l-17 27l48 86h90l-22 -43q61 -14 61 -69z" />
    <glyph glyph-name="uni008E" horiz-adv-x="580" 
d="M552 278q-2 -57 -59 -57h-336q9 -55 47.5 -87t89.5 -32q45 0 90 11l141 36l26 -107l-141 -35q-55 -13 -118 -13q-119 0 -191.5 77t-72.5 200q0 130 77.5 205.5t187.5 75.5q119 0 190 -71t69 -203zM431 319q-7 58 -41.5 95t-97.5 37q-55 0 -91.5 -37t-44.5 -95h275z
M209 743q-31 -12 -24 -42q7 -27 36 -33q14 -3 29 2l166 51l-51 85z" />
    <glyph glyph-name="uni008F" horiz-adv-x="580" 
d="M552 278q-2 -57 -59 -57h-336q9 -55 47.5 -87t89.5 -32q45 0 90 11l141 36l26 -107l-141 -35q-55 -13 -118 -13q-119 0 -191.5 77t-72.5 200q0 130 77.5 205.5t187.5 75.5q119 0 190 -71t69 -203zM431 319q-7 58 -41.5 95t-97.5 37q-55 0 -91.5 -37t-44.5 -95h275z
M373 743q31 -12 24 -42q-7 -27 -36 -33q-14 -3 -29 2l-166 51l51 85z" />
    <glyph glyph-name="uni0090" horiz-adv-x="580" 
d="M552 278q-2 -57 -59 -57h-336q9 -55 47.5 -87t89.5 -32q45 0 90 11l141 36l26 -107l-141 -35q-55 -13 -118 -13q-119 0 -191.5 77t-72.5 200q0 130 77.5 205.5t187.5 75.5q119 0 190 -71t69 -203zM431 319q-7 58 -41.5 95t-97.5 37q-55 0 -91.5 -37t-44.5 -95h275z
M481 727l-50 -68l-144 57l-144 -56l-49 68l194 91z" />
    <glyph glyph-name="uni0091" horiz-adv-x="580" 
d="M552 278q-2 -57 -59 -57h-336q9 -55 47.5 -87t89.5 -32q45 0 90 11l141 36l26 -107l-141 -35q-55 -13 -118 -13q-119 0 -191.5 77t-72.5 200q0 130 77.5 205.5t187.5 75.5q119 0 190 -71t69 -203zM431 319q-7 58 -41.5 95t-97.5 37q-55 0 -91.5 -37t-44.5 -95h275z
M466 697q0 -23 -19.5 -39t-51.5 -16t-51.5 16t-19.5 39t19.5 39t51.5 16t51.5 -16t19.5 -39zM252 697q0 -23 -19.5 -39t-51.5 -16t-51.5 16t-19.5 39t19.5 39t51.5 16t51.5 -16t19.5 -39z" />
    <glyph glyph-name="uni0092" horiz-adv-x="226" 
d="M168 0h-107v544h107v-544zM30 743q-31 -12 -24 -42q7 -27 36 -33q14 -3 29 2l166 51l-51 85z" />
    <glyph glyph-name="uni0093" horiz-adv-x="226" 
d="M168 0h-107v544h107v-544zM196 743q31 -12 24 -42q-7 -27 -36 -33q-14 -3 -29 2l-166 51l51 85z" />
    <glyph glyph-name="uni0094" horiz-adv-x="226" 
d="M168 0h-107v544h107v-544zM306 727l-50 -68l-144 57l-144 -56l-49 68l194 91z" />
    <glyph glyph-name="uni0095" horiz-adv-x="226" 
d="M257 672q0 -34 -19.5 -56t-50.5 -22q-32 0 -51 22t-19 56q0 35 19 57.5t51 22.5q31 0 50.5 -22.5t19.5 -57.5zM105 672q0 -34 -19 -56t-51 -22q-31 0 -50.5 22t-19.5 56q0 35 19.5 57.5t50.5 22.5q32 0 51 -22.5t19 -57.5zM164 0h-99v525h99v-525z" />
    <glyph glyph-name="uni0096" horiz-adv-x="570" 
d="M520 0h-122v348q0 102 -123 89l-90 -9v-428h-125v446q0 36 22.5 60.5t62.5 28.5l115 12q71 8 123 -5t81 -42.5t42.5 -67.5t13.5 -85v-347zM513 773l-40 -48q-32 -38 -85 -47t-110 18l-53 27q-32 16 -52 -8l-37 -42l-86 41l38 44q35 41 86.5 49t107.5 -19l54 -27
q29 -14 52 9l40 43z" />
    <glyph glyph-name="uni0097" horiz-adv-x="594" 
d="M565 272q0 -123 -73.5 -200.5t-195.5 -77.5q-121 0 -193 78t-72 200q0 121 74 199.5t195 78.5t193 -77.5t72 -200.5zM442 272q0 76 -38.5 125.5t-107.5 49.5t-105 -49t-36 -126q0 -76 38 -126t107 -50q70 0 106 49t36 127zM200 743q-31 -12 -24 -42q7 -27 36 -33
q14 -3 29 2l166 51l-51 85z" />
    <glyph glyph-name="uni0098" horiz-adv-x="594" 
d="M565 272q0 -123 -73.5 -200.5t-195.5 -77.5q-121 0 -193 78t-72 200q0 121 74 199.5t195 78.5t193 -77.5t72 -200.5zM442 272q0 76 -38.5 125.5t-107.5 49.5t-105 -49t-36 -126q0 -76 38 -126t107 -50q70 0 106 49t36 127zM372 743q31 -12 24 -42q-7 -27 -36 -33
q-14 -3 -29 2l-166 51l51 85z" />
    <glyph glyph-name="uni0099" horiz-adv-x="594" 
d="M565 272q0 -123 -73.5 -200.5t-195.5 -77.5q-121 0 -193 78t-72 200q0 121 74 199.5t195 78.5t193 -77.5t72 -200.5zM442 272q0 76 -38.5 125.5t-107.5 49.5t-105 -49t-36 -126q0 -76 38 -126t107 -50q70 0 106 49t36 127zM486 727l-50 -68l-144 57l-144 -56l-49 68
l194 91z" />
    <glyph glyph-name="uni009A" horiz-adv-x="594" 
d="M565 272q0 -123 -73.5 -200.5t-195.5 -77.5q-121 0 -193 78t-72 200q0 121 74 199.5t195 78.5t193 -77.5t72 -200.5zM442 272q0 76 -38.5 125.5t-107.5 49.5t-105 -49t-36 -126q0 -76 38 -126t107 -50q70 0 106 49t36 127zM472 697q0 -23 -19.5 -39t-51.5 -16t-51.5 16
t-19.5 39t19.5 39t51.5 16t51.5 -16t19.5 -39zM258 697q0 -23 -19.5 -39t-51.5 -16t-51.5 16t-19.5 39t19.5 39t51.5 16t51.5 -16t19.5 -39z" />
    <glyph glyph-name="uni009B" horiz-adv-x="594" 
d="M565 272q0 -123 -73.5 -200.5t-195.5 -77.5q-121 0 -193 78t-72 200q0 121 74 199.5t195 78.5t193 -77.5t72 -200.5zM442 272q0 76 -38.5 125.5t-107.5 49.5t-105 -49t-36 -126q0 -76 38 -126t107 -50q70 0 106 49t36 127zM524 773l-40 -48q-32 -38 -85 -47t-110 18
l-53 27q-32 16 -52 -8l-37 -42l-86 41l38 44q35 41 86.5 49t107.5 -19l54 -27q29 -14 52 9l40 43z" />
    <glyph glyph-name="uni009C" horiz-adv-x="570" 
d="M55 544h122v-348q0 -102 123 -89l90 9v428h125v-446q0 -36 -22.5 -60.5t-62.5 -28.5l-115 -12q-71 -8 -123 5t-81 42.5t-42.5 67.5t-13.5 85v347zM203 743q-31 -12 -24 -42q7 -27 36 -33q14 -3 29 2l166 51l-51 85z" />
    <glyph glyph-name="uni009D" horiz-adv-x="570" 
d="M55 544h122v-348q0 -102 123 -89l90 9v428h125v-446q0 -36 -22.5 -60.5t-62.5 -28.5l-115 -12q-71 -8 -123 5t-81 42.5t-42.5 67.5t-13.5 85v347zM367 743q31 -12 24 -42q-7 -27 -36 -33q-14 -3 -29 2l-166 51l51 85z" />
    <glyph glyph-name="uni009E" horiz-adv-x="570" 
d="M55 544h122v-348q0 -102 123 -89l90 9v428h125v-446q0 -36 -22.5 -60.5t-62.5 -28.5l-115 -12q-71 -8 -123 5t-81 42.5t-42.5 67.5t-13.5 85v347zM482 727l-50 -68l-144 57l-144 -56l-49 68l194 91z" />
    <glyph glyph-name="uni009F" horiz-adv-x="570" 
d="M55 544h122v-348q0 -102 123 -89l90 9v428h125v-446q0 -36 -22.5 -60.5t-62.5 -28.5l-115 -12q-71 -8 -123 5t-81 42.5t-42.5 67.5t-13.5 85v347zM465 697q0 -23 -19.5 -39t-51.5 -16t-51.5 16t-19.5 39t19.5 39t51.5 16t51.5 -16t19.5 -39zM251 697q0 -23 -19.5 -39
t-51.5 -16t-51.5 16t-19.5 39t19.5 39t51.5 16t51.5 -16t19.5 -39z" />
    <glyph glyph-name="uni00A0" unicode="&#xa0;" horiz-adv-x="551" 
d="M523 380l-194 18l19 -581h-143l19 581l-196 -18v145l194 -16l-19 235h146l-17 -235l191 16v-145z" />
    <glyph glyph-name="exclamdown" unicode="&#xa1;" horiz-adv-x="476" 
d="M443 570q0 -85 -55.5 -140t-147.5 -55q-93 0 -147.5 55t-54.5 140q0 84 55.5 139t148.5 55q92 0 146.5 -55t54.5 -139zM328 570q0 43 -23 69.5t-65 26.5t-64 -26t-22 -70t23 -71t65 -27t64 27t22 71z" />
    <glyph glyph-name="cent" unicode="&#xa2;" 
d="M527 511l-27 -112l-136 37q-24 7 -56 7q-66 0 -100.5 -47.5t-34.5 -123.5q0 -74 37.5 -123t101.5 -49q29 0 52 7l136 40l25 -111l-131 -39q-16 -6 -35 -9v-120h-119v125q-88 24 -139.5 99.5t-51.5 179.5t52.5 179.5t138.5 97.5v116h119v-112q31 -4 37 -6z" />
    <glyph glyph-name="sterling" unicode="&#xa3;" 
d="M586 58l-143 -44q-44 -14 -107 -14h-267q-34 0 -48 28t0.5 56.5t47.5 28.5q65 0 87.5 28.5t22.5 73.5q0 11 -6 41h-130v111h77l-35 65q-27 50 -27 123q0 94 67 146t175 52q65 0 108 -13l151 -44l-34 -113l-147 44q-38 11 -78 11q-119 0 -119 -83q0 -45 17 -77l59 -110
h196v-111h-153q3 -23 3 -40q0 -59 -23 -102h56q41 0 76 10l140 43z" />
    <glyph glyph-name="yen" unicode="&#xa5;" horiz-adv-x="433" 
d="M350 344q0 -61 -34.5 -99.5t-96.5 -38.5q-61 0 -96.5 38.5t-35.5 99.5q0 59 34 97t96 38t97.5 -37.5t35.5 -97.5z" />
    <glyph glyph-name="section" unicode="&#xa7;" horiz-adv-x="573" 
d="M542 202q0 -92 -59.5 -147t-161.5 -55h-96v110h96q100 0 100 89q0 29 -22 49l-56 55q-53 52 -12 121l36 60q21 36 21 73q0 43 -29 68.5t-81 25.5q-55 0 -79 -23.5t-24 -76.5v-551h-125v551q0 110 63 158.5t168 48.5q104 0 165.5 -52.5t61.5 -148.5q0 -66 -37 -126
l-34 -55l52 -51q53 -51 53 -123z" />
    <glyph glyph-name="copyright" unicode="&#xa9;" horiz-adv-x="933" 
d="M872 367q0 -162 -119.5 -277t-286.5 -115q-168 0 -287.5 114.5t-119.5 277.5t119 276.5t288 113.5q168 0 287 -112.5t119 -277.5zM758 367q0 119 -85 200.5t-207 81.5q-123 0 -208.5 -82t-85.5 -200q0 -117 86 -200t208 -83q121 0 206.5 83t85.5 200zM648 555l-25 -107
l-114 30q-18 3 -45 3q-49 0 -74.5 -31t-25.5 -83t27 -84t76 -32q24 0 42 5l113 29l25 -103l-113 -28q-36 -8 -68 -8q-98 0 -157.5 62t-59.5 159q0 96 60 158.5t157 62.5q48 0 71 -8z" />
    <glyph glyph-name="ordfeminine" unicode="&#xaa;" horiz-adv-x="869" 
d="M817 332h-106v150l-42 -116q-12 -34 -57.5 -33t-57.5 34l-42 114v-149h-104v361q0 31 29 47t62.5 7.5t43.5 -39.5l69 -205l71 203q11 30 44 38t61.5 -7.5t28.5 -43.5v-361zM392 650h-118v-318h-113v318h-117v96h348v-96z" />
    <glyph glyph-name="guillemotleft" unicode="&#xab;" horiz-adv-x="542" 
d="M196 743q-31 -12 -24 -42q7 -27 36 -33q14 -3 29 2l166 51l-51 85z" />
    <glyph glyph-name="logicalnot" unicode="&#xac;" horiz-adv-x="572" 
d="M465 697q0 -23 -19.5 -39t-51.5 -16t-51.5 16t-19.5 39t19.5 39t51.5 16t51.5 -16t19.5 -39zM251 697q0 -23 -19.5 -39t-51.5 -16t-51.5 16t-19.5 39t19.5 39t51.5 16t51.5 -16t19.5 -39z" />
    <glyph glyph-name="uni00AD" unicode="&#xad;" horiz-adv-x="551" 
d="M535 167h-254l-63 -126h-110l62 126v0v0h-1v0h-1h-1v0h-1h-1h-1h-1h-1h-1h-1h-1h-1h-1h-1h-1h-1h-1h-1h-1h-1h-1h-1h-1h-1h-1h-1h-1h-1h-1h-1h-1h-2h-1h-1h-1h-1h-2h-1h-1h-1h-2h-1h-1h-2h-1h-1h-2h-1h-1h-2h-1h-1h-2h-1h-2h-1h-2h-1h-2h-1h-2h-1h-2h-1h-2h-1h-2h-1h-2
h-2h-1h-2h-2h-1h-2h-1h-2h-2h-1h-2h-2h-2h-1h-2h-2h-2h-1h-2h-2h-2h-1h-2h-2h-2h-2h-9v114h193l18 37h-211v114h262l68 141h109l-69 -141h133v-114h-183l-18 -37h201v-114z" />
    <glyph glyph-name="registered" unicode="&#xae;" horiz-adv-x="966" 
d="M941 0h-422q-45 0 -70.5 24.5t-25.5 65.5v66h-237l-56 -156h-137l249 671q28 73 108 73h588v-112h-389v-195h349v-112h-349v-213h392v-112zM423 268v364h-70l-128 -364h198z" />
    <glyph glyph-name="macron" unicode="&#xaf;" horiz-adv-x="760" 
d="M729 370q0 -169 -98.5 -275t-250.5 -106q-66 0 -125 24l-33 -65h-115l59 117q-61 52 -95.5 130.5t-34.5 174.5q0 167 99 274t250 107q64 0 126 -24l33 65h115l-60 -119q61 -50 95.5 -128.5t34.5 -174.5zM601 370q0 121 -60 193l-232 -448q33 -13 76 -13q99 0 157.5 74
t58.5 194zM456 623q-33 13 -76 13q-99 0 -158 -73.5t-59 -192.5q0 -122 61 -194z" />
    <glyph glyph-name="degree" unicode="&#xb0;" horiz-adv-x="801" 
d="M772 297q0 -94 -53.5 -153t-145.5 -59q-64 0 -112 23l-57 28l-60 -28q-48 -23 -112 -23q-93 0 -146 59t-53 153q0 97 52 154.5t147 57.5q63 0 112 -23l58 -27l59 27q49 23 112 23q94 0 146.5 -58t52.5 -154zM657 297q0 105 -84 105q-33 0 -73 -15l-41 -15v-150l41 -15
q42 -15 73 -15q39 0 61.5 26.5t22.5 78.5zM346 222v150l-42 15q-40 15 -72 15q-84 0 -84 -105q0 -52 22.5 -78.5t61.5 -26.5q30 0 72 15z" />
    <glyph glyph-name="plusminus" unicode="&#xb1;" horiz-adv-x="551" 
d="M533 263h-193v-155h-121v155h-189v113h189v164h121v-164h193v-113zM533 0h-503v111h503v-111z" />
    <glyph glyph-name="uni00B2" unicode="&#xb2;" horiz-adv-x="551" 
d="M533 91l-465 150q-33 11 -46 39.5t-0.5 57.5t46.5 40l465 151v-126l-322 -94l322 -94v-124zM531 0h-504v109h504v-109z" />
    <glyph glyph-name="uni00B3" unicode="&#xb3;" horiz-adv-x="551" 
d="M21 91l465 150q33 11 46 39.5t0.5 57.5t-46.5 40l-465 151v-126l322 -94l-322 -94v-124zM23 0h504v109h-504v-109z" />
    <glyph glyph-name="uni00B5" unicode="&#xb5;" horiz-adv-x="572" 
d="M518 90q0 -37 -22.5 -62t-62.5 -29l-114 -12q-83 -9 -139 13v-184h-120v728h121v-353q0 -105 127 -92l89 9v436h121v-454z" />
    <glyph glyph-name="paragraph" unicode="&#xb6;" 
d="M549 259q0 -119 -67.5 -192t-187.5 -73q-123 0 -189 70.5t-66 183.5q0 56 17.5 103.5t52.5 84t93.5 54t134.5 9.5l90 -9v7q0 64 -32.5 100t-97.5 36q-41 0 -72 -9l-148 -45l-31 113l148 45q41 13 108 13q115 0 181 -71t66 -182v-238zM427 262v114l-101 9
q-164 14 -164 -137q0 -64 33 -102.5t95 -38.5q68 0 102.5 42t34.5 113z" />
    <glyph glyph-name="periodcentered" unicode="&#xb7;" horiz-adv-x="685" 
d="M669 -180h-556q-51 0 -70 44t11 84l247 334l-247 334q-30 40 -11 84t70 44h546v-210h-121v90h-335l256 -339l-257 -345h346v99h121v-219z" />
    <glyph glyph-name="uni00B9" unicode="&#xb9;" horiz-adv-x="696" 
d="M710 10l-86 -12q-47 -9 -89.5 -1.5t-74.5 27t-51 62t-19 103.5v247h-162v-436h-123v436h-86v108h659v-108h-167v-247q0 -44 18 -66t74 -13l86 14z" />
    <glyph glyph-name="ordmasculine" unicode="&#xba;" horiz-adv-x="402" 
d="M429 747l-21 -116l-84 13q-57 9 -74 -13t-17 -70v-538q0 -124 -63.5 -169.5t-166.5 -29.5l-84 13l21 116l84 -13q30 -5 49 -0.5t27.5 18t11 28t2.5 37.5v538q0 124 64 169.5t167 29.5z" />
    <glyph glyph-name="guillemotright" unicode="&#xbb;" horiz-adv-x="551" 
d="M498 405l-48 -85l-62 24q-16 6 -31 2l-83 -14q-95 -16 -149 23t-54 104q0 135 181 135h81v7q0 47 -53 47q-33 0 -67 -7l-112 -24l-24 98l111 27q43 10 93 10q73 0 118.5 -37t45.5 -114v-170zM333 442v53h-82q-34 0 -49.5 -6t-15.5 -27q0 -45 74 -32z" />
    <glyph glyph-name="questiondown" unicode="&#xbf;" horiz-adv-x="594" 
d="M565 272q0 -121 -74 -201.5t-195 -80.5q-43 0 -80 12l-29 -54h-111l52 100q-97 78 -97 224q0 121 74 201t195 80q44 0 85 -12l26 49h110l-50 -96q94 -81 94 -222zM442 272q0 64 -29 110l-147 -281q16 -3 34 -3q69 0 105.5 49t36.5 125zM333 440q-15 4 -37 4
q-68 0 -104.5 -48.5t-36.5 -123.5q0 -69 30 -115z" />
    <glyph glyph-name="Agrave" unicode="&#xc0;" horiz-adv-x="457" 
d="M19 2q0 31 12 73t39 71l107 115v91l118 21v-90q0 -40 -7 -59.5t-31 -46.5l-93 -103q-27 -31 -27 -75q0 -30 23.5 -49t63.5 -19q48 0 92 12l104 27l25 -116l-103 -28q-53 -14 -121 -14q-90 0 -146 51.5t-56 138.5zM173 514q0 23 17 38.5t46 15.5q28 0 45 -15.5t17 -38.5
t-17 -39t-45 -16q-29 0 -46 16t-17 39z" />
    <glyph glyph-name="Aacute" unicode="&#xc1;" horiz-adv-x="208" 
d="M39 352l130 22v-558h-130v536zM39 515q0 23 17.5 38.5t47.5 15.5t47.5 -15.5t17.5 -38.5t-17.5 -38.5t-47.5 -15.5t-47.5 15.5t-17.5 38.5z" />
    <glyph glyph-name="Acircumflex" unicode="&#xc2;" horiz-adv-x="551" 
d="M528 93h-120v180h-383v106h503v-286z" />
    <glyph glyph-name="Atilde" unicode="&#xc3;" horiz-adv-x="641" 
d="M657 631h-107l-182 -586q-8 -27 -29 -42t-43.5 -14.5t-43.5 15t-29 40.5l-129 398h-99v114h197l104 -346l158 534h203v-113z" />
    <glyph glyph-name="Adieresis" unicode="&#xc4;" horiz-adv-x="402" 
d="M429 747l-21 -116l-84 13q-57 9 -74 -13t-17 -70v-14h165v-114h-165v-410q0 -124 -63.5 -169.5t-166.5 -29.5l-84 13l21 116l84 -13q30 -5 49 -0.5t27.5 18t11 28t2.5 37.5v410h-84v114h84v14q0 124 64 169.5t167 29.5z" />
    <glyph glyph-name="Aring" unicode="&#xc5;" horiz-adv-x="551" 
d="M543 401l-39 -56q-30 -43 -81 -55t-112 11l-115 42q-38 14 -59 -10l-34 -51l-90 49l39 53q67 92 193 45l115 -43q37 -13 58 12l40 51zM555 268l-39 -55q-32 -45 -82.5 -57.5t-111.5 11.5l-113 44q-37 16 -59 -12l-38 -49l-87 49l39 52q68 90 192 44l116 -43q38 -14 58 13
l39 52z" />
    <glyph glyph-name="AE" unicode="&#xc6;" horiz-adv-x="649" 
d="M659 0h-665l253 696q13 35 47.5 48.5t68.5 0t46 -47.5zM488 111l-163 460l-159 -460h322z" />
    <glyph glyph-name="Ccedilla" unicode="&#xc7;" horiz-adv-x="548" 
d="M286 337l164 153l79 -74l-146 -136l151 -139l-75 -70l-169 153q-29 27 -30 57.5t26 55.5zM78 337l164 153l79 -74l-146 -136l151 -139l-75 -70l-169 153q-29 27 -30 57.5t26 55.5z" />
    <glyph glyph-name="Egrave" unicode="&#xc8;" horiz-adv-x="548" 
d="M270 337q27 -25 26 -55.5t-30 -57.5l-169 -153l-75 70l151 139l-146 136l79 74zM478 337q27 -25 26 -55.5t-30 -57.5l-169 -153l-75 70l151 139l-146 136l79 74z" />
    <glyph glyph-name="Eacute" unicode="&#xc9;" horiz-adv-x="624" 
d="M170 47q0 -24 -17.5 -40t-47.5 -16t-47.5 16t-17.5 40t17.5 40t47.5 16t47.5 -16t17.5 -40zM378 47q0 -24 -17.5 -40t-47.5 -16t-47.5 16t-17.5 40t17.5 40t47.5 16t47.5 -16t17.5 -40zM586 47q0 -24 -17.5 -40t-47.5 -16t-47.5 16t-17.5 40t17.5 40t47.5 16t47.5 -16
t17.5 -40z" />
    <glyph glyph-name="Edieresis" unicode="&#xcb;" horiz-adv-x="649" 
d="M658 0h-138l-55 157h-281l-56 -157h-135l248 693q13 36 49.5 50.5t73 0.5t49.5 -50zM425 269l-98 305l-103 -305h201zM401 883q31 -12 24 -42q-7 -27 -36 -33q-14 -3 -29 2l-166 51l51 85z" />
    <glyph glyph-name="Igrave" unicode="&#xcc;" horiz-adv-x="649" 
d="M658 0h-138l-55 157h-281l-56 -157h-135l248 693q13 36 49.5 50.5t73 0.5t49.5 -50zM425 269l-98 305l-103 -305h201zM561 901l-40 -48q-32 -38 -85 -47t-110 18l-53 27q-32 16 -52 -8l-37 -42l-86 41l38 44q35 41 86.5 49t107.5 -19l54 -27q29 -14 52 9l40 43z" />
    <glyph glyph-name="Iacute" unicode="&#xcd;" horiz-adv-x="760" 
d="M709 370q0 -171 -93.5 -274.5t-245.5 -103.5q-150 0 -242 104t-92 274q0 169 94 273.5t245 104.5q150 0 242 -104t92 -274zM577 370q0 119 -54.5 192t-152.5 73t-151 -72.5t-53 -192.5t55.5 -193.5t153.5 -73.5q97 0 149.5 72.5t52.5 194.5zM608 901l-40 -48
q-32 -38 -85 -47t-110 18l-53 27q-32 16 -52 -8l-37 -42l-86 41l38 44q35 41 86.5 49t107.5 -19l54 -27q29 -14 52 9l40 43z" />
    <glyph glyph-name="Icircumflex" unicode="&#xce;" horiz-adv-x="1081" 
d="M1040 0h-669q-150 0 -244.5 105.5t-94.5 268.5q0 162 96.5 266t247.5 104h661v-112h-392v-195h352v-112h-352v-213h395v-112zM518 110v523h-139q-103 0 -161 -71.5t-58 -187.5q0 -115 60 -189.5t166 -74.5h132z" />
    <glyph glyph-name="Idieresis" unicode="&#xcf;" horiz-adv-x="1007" 
d="M979 274q-2 -57 -58 -57h-345q12 -52 50 -81.5t90 -29.5q46 0 91 11l145 37l26 -112l-144 -35q-55 -13 -120 -13q-133 0 -205 91q-73 -91 -208 -91q-123 0 -196.5 79t-73.5 199q0 119 75.5 198.5t198.5 79.5q134 0 206 -91q73 93 204 93q121 0 193.5 -72t70.5 -206z
M854 324q-7 53 -42.5 87t-97.5 34q-55 0 -91.5 -33.5t-46.5 -87.5h278zM449 272q0 73 -39 122t-109 49q-69 0 -106 -48.5t-37 -122.5q0 -73 39 -122.5t108 -49.5q70 0 107 48.5t37 123.5z" />
    <glyph glyph-name="Eth" unicode="&#xd0;" horiz-adv-x="551" 
d="M535 304h-503v75h503v-75z" />
    <glyph glyph-name="Ntilde" unicode="&#xd1;" horiz-adv-x="1000" 
d="M969 304h-933v75h933v-75z" />
    <glyph glyph-name="Ograve" unicode="&#xd2;" horiz-adv-x="383" 
d="M196 588l109 -24l39 129q7 23 -4 41t-36 23q-24 4 -41.5 -6.5t-24.5 -32.5zM22 601l109 -24l39 129q7 23 -4 41t-36 23q-24 4 -41.5 -6.5t-24.5 -32.5z" />
    <glyph glyph-name="Oacute" unicode="&#xd3;" horiz-adv-x="383" 
d="M180 756l-109 24l-39 -129q-7 -23 4 -41t36 -23q24 -4 41.5 6.5t24.5 32.5zM354 743l-109 24l-39 -129q-7 -23 4 -41t36 -23q24 -4 41.5 6.5t24.5 32.5z" />
    <glyph glyph-name="Ocircumflex" unicode="&#xd4;" horiz-adv-x="208" 
d="M22 601l42 130q7 22 24.5 32.5t41.5 6.5q25 -5 36 -23t4 -41l-39 -129z" />
    <glyph glyph-name="Otilde" unicode="&#xd5;" horiz-adv-x="208" 
d="M180 756l-42 -130q-7 -22 -24.5 -32.5t-41.5 -6.5q-25 5 -36 23t-4 41l39 129z" />
    <glyph glyph-name="Odieresis" unicode="&#xd6;" horiz-adv-x="551" 
d="M352 479q0 -32 -19.5 -52.5t-52.5 -20.5t-52.5 20.5t-19.5 52.5t20 53t52 21t52 -21t20 -53zM533 238h-503v113h503v-113zM352 109q0 -32 -20 -53t-52 -21t-52 21t-20 53t19.5 52.5t52.5 20.5t52.5 -20.5t19.5 -52.5z" />
    <glyph glyph-name="multiply" unicode="&#xd7;" horiz-adv-x="649" 
d="M642 371l-244 -346q-26 -37 -71.5 -38t-73.5 38l-242 346l242 348q25 37 71 37.5t74 -38.5zM499 371l-171 250l-173 -250l173 -248z" />
    <glyph glyph-name="Oslash" unicode="&#xd8;" horiz-adv-x="530" 
d="M530 544l-206 -616q-45 -133 -217 -104l-81 14l19 109l82 -13q33 -5 53 2t24.5 14.5t8.5 20.5l6 19l-212 554h133l140 -393l119 393h131zM455 697q0 -23 -19.5 -39t-51.5 -16t-51.5 16t-19.5 39t19.5 39t51.5 16t51.5 -16t19.5 -39zM241 697q0 -23 -19.5 -39t-51.5 -16
t-51.5 16t-19.5 39t19.5 39t51.5 16t51.5 -16t19.5 -39z" />
    <glyph glyph-name="Ugrave" unicode="&#xd9;" horiz-adv-x="641" 
d="M647 744l-253 -396v-348h-133v346l-258 398h149l178 -279l169 279h148zM510 873q0 -23 -19.5 -39t-51.5 -16t-51.5 16t-19.5 39t19.5 39t51.5 16t51.5 -16t19.5 -39zM296 873q0 -23 -19.5 -39t-51.5 -16t-51.5 16t-19.5 39t19.5 39t51.5 16t51.5 -16t19.5 -39z" />
    <glyph glyph-name="Uacute" unicode="&#xda;" horiz-adv-x="901" 
d="M817 744l-597 -744h-142l599 744h140z" />
    <glyph glyph-name="Ucircumflex" unicode="&#xdb;" 
d="M573 707l-29 -113l-135 36q-22 5 -51 5q-63 0 -99 -36t-41 -106h261l-48 -113h-215v-28h207l-49 -113h-156q7 -64 45 -99t98 -35q23 0 49 8l136 40l24 -113l-131 -36q-46 -12 -83 -12q-111 0 -184 65.5t-80 181.5h-88l39 113h48v28h-82l39 113h44q7 123 79 191.5
t185 68.5q57 0 86 -11z" />
    <glyph glyph-name="Udieresis" unicode="&#xdc;" horiz-adv-x="340" 
d="M78 337q-27 -25 -26 -55.5t30 -57.5l169 -153l75 70l-151 139l146 136l-79 74z" />
    <glyph glyph-name="Yacute" unicode="&#xdd;" horiz-adv-x="340" 
d="M270 337q27 -25 26 -55.5t-30 -57.5l-169 -153l-75 70l151 139l-146 136l79 74z" />
    <glyph glyph-name="Thorn" unicode="&#xde;" horiz-adv-x="578" 
d="M544 694q0 -34 -20.5 -56t-53.5 -22t-53 22t-20 56t20 56t53 22t53.5 -22t20.5 -56zM533 0h-125v439h-197v-439h-121v439h-85v113h85v12q0 122 64.5 166.5t169.5 29.5l85 -12l-21 -115l-85 13q-57 9 -74.5 -13t-17.5 -69v-12h322v-552z" />
    <glyph glyph-name="germandbls" unicode="&#xdf;" horiz-adv-x="578" 
d="M531 0h-122v632l-105 12q-58 7 -75.5 -15.5t-17.5 -70.5v-15h166v-110h-166v-433h-121v433h-85v110h85v15q0 223 230 197l110 -12l101 26v-769z" />
    <glyph glyph-name="agrave" unicode="&#xe0;" horiz-adv-x="551" 
d="M523 35l-191 16l17 -235h-146l19 236l-194 -17v145l196 -16l-19 116l19 117l-196 -17v145l194 -16l-19 235h146l-17 -235l191 16v-145l-195 17l20 -117l-20 -116l195 16v-145z" />
    <glyph glyph-name="aacute" unicode="&#xe1;" horiz-adv-x="374" 
d="M254 367q0 -24 -17.5 -40t-47.5 -16t-47.5 16t-17.5 40t17.5 40t47.5 16t47.5 -16t17.5 -40z" />
    <glyph glyph-name="acircumflex" unicode="&#xe2;" horiz-adv-x="208" 
d="M180 80l-42 -130q-7 -22 -24.5 -32.5t-41.5 -6.5q-25 5 -36 23t-4 41l39 129z" />
    <glyph glyph-name="atilde" unicode="&#xe3;" horiz-adv-x="383" 
d="M180 80l-42 -130q-7 -22 -24.5 -32.5t-41.5 -6.5q-25 5 -36 23t-4 41l39 129zM354 67l-42 -130q-7 -22 -24.5 -32.5t-41.5 -6.5q-25 5 -36 23t-4 41l39 129z" />
    <glyph glyph-name="adieresis" unicode="&#xe4;" horiz-adv-x="1315" 
d="M1297 190q0 -91 -57 -149.5t-151 -58.5t-150 58.5t-56 149.5q0 90 57 148.5t151 58.5t150 -58.5t56 -148.5zM885 190q0 -91 -57.5 -149.5t-150.5 -58.5q-94 0 -150 58.5t-56 149.5q0 90 57 148.5t151 58.5t150 -58.5t56 -148.5zM439 557q0 -91 -57 -149.5t-151 -58.5
t-150 58.5t-56 149.5q0 90 57 148.5t151 58.5t150 -58.5t56 -148.5zM1178 190q0 46 -23.5 74.5t-65.5 28.5q-43 0 -64.5 -28.5t-21.5 -74.5q0 -47 23 -76t65 -29q43 0 65 28.5t22 76.5zM766 190q0 46 -23.5 74.5t-65.5 28.5q-43 0 -65 -28.5t-22 -74.5q0 -47 23.5 -76
t65.5 -29q43 0 65 28.5t22 76.5zM320 557q0 46 -23.5 74.5t-65.5 28.5q-43 0 -64.5 -28t-21.5 -75t23 -76t65 -29q43 0 65 29t22 76zM818 723l-592 -702h-141l594 702h139z" />
    <glyph glyph-name="aring" unicode="&#xe5;" horiz-adv-x="649" 
d="M658 0h-138l-55 157h-281l-56 -157h-135l248 693q13 36 49.5 50.5t73 0.5t49.5 -50zM425 269l-98 305l-103 -305h201zM521 868l-50 -68l-144 57l-144 -56l-49 68l194 91z" />
    <glyph glyph-name="ae" unicode="&#xe6;" horiz-adv-x="606" 
d="M569 0h-415q-45 0 -70.5 24.5t-25.5 65.5v565q0 40 25.5 64.5t70.5 24.5h412v-112h-378v-195h339v-112h-339v-213h381v-112zM506 868l-50 -68l-144 57l-144 -56l-49 68l194 91z" />
    <glyph glyph-name="ccedilla" unicode="&#xe7;" horiz-adv-x="649" 
d="M658 0h-138l-55 157h-281l-56 -157h-135l248 693q13 36 49.5 50.5t73 0.5t49.5 -50zM425 269l-98 305l-103 -305h201zM238 883q-31 -12 -24 -42q7 -27 36 -33q14 -3 29 2l166 51l-51 85z" />
    <glyph glyph-name="egrave" unicode="&#xe8;" horiz-adv-x="606" 
d="M569 0h-415q-45 0 -70.5 24.5t-25.5 65.5v565q0 40 25.5 64.5t70.5 24.5h412v-112h-378v-195h339v-112h-339v-213h381v-112zM486 873q0 -23 -19.5 -39t-51.5 -16t-51.5 16t-19.5 39t19.5 39t51.5 16t51.5 -16t19.5 -39zM272 873q0 -23 -19.5 -39t-51.5 -16t-51.5 16
t-19.5 39t19.5 39t51.5 16t51.5 -16t19.5 -39z" />
    <glyph glyph-name="eacute" unicode="&#xe9;" horiz-adv-x="606" 
d="M569 0h-415q-45 0 -70.5 24.5t-25.5 65.5v565q0 40 25.5 64.5t70.5 24.5h412v-112h-378v-195h339v-112h-339v-213h381v-112zM385 883q31 -12 24 -42q-7 -27 -36 -33q-14 -3 -29 2l-166 51l51 85z" />
    <glyph glyph-name="ecircumflex" unicode="&#xea;" horiz-adv-x="232" 
d="M194 0h-137v744h137v-744zM31 883q-31 -12 -24 -42q7 -27 36 -33q14 -3 29 2l166 51l-51 85z" />
    <glyph glyph-name="edieresis" unicode="&#xeb;" horiz-adv-x="232" 
d="M194 0h-137v744h137v-744zM310 868l-50 -68l-144 57l-144 -56l-49 68l194 91z" />
    <glyph glyph-name="igrave" unicode="&#xec;" horiz-adv-x="232" 
d="M266 848q0 -34 -19.5 -57t-50.5 -23t-50.5 23t-19.5 57t19.5 57t50.5 23t50.5 -23t19.5 -57zM114 848q0 -34 -19.5 -57t-50.5 -23t-50.5 23t-19.5 57t19.5 57t50.5 23t50.5 -23t19.5 -57zM188 0h-126v723h126v-723z" />
    <glyph glyph-name="iacute" unicode="&#xed;" horiz-adv-x="232" 
d="M194 0h-137v744h137v-744zM208 883q31 -12 24 -42q-7 -27 -36 -33q-14 -3 -29 2l-166 51l51 85z" />
    <glyph glyph-name="icircumflex" unicode="&#xee;" horiz-adv-x="760" 
d="M709 370q0 -171 -93.5 -274.5t-245.5 -103.5q-150 0 -242 104t-92 274q0 169 94 273.5t245 104.5q150 0 242 -104t92 -274zM577 370q0 119 -54.5 192t-152.5 73t-151 -72.5t-53 -192.5t55.5 -193.5t153.5 -73.5q97 0 149.5 72.5t52.5 194.5zM301 883q-31 -12 -24 -42
q7 -27 36 -33q14 -3 29 2l166 51l-51 85z" />
    <glyph glyph-name="idieresis" unicode="&#xef;" horiz-adv-x="760" 
d="M709 370q0 -171 -93.5 -274.5t-245.5 -103.5q-150 0 -242 104t-92 274q0 169 94 273.5t245 104.5q150 0 242 -104t92 -274zM577 370q0 119 -54.5 192t-152.5 73t-151 -72.5t-53 -192.5t55.5 -193.5t153.5 -73.5q97 0 149.5 72.5t52.5 194.5zM577 868l-50 -68l-144 57
l-144 -56l-49 68l194 91z" />
    <glyph glyph-name="eth" unicode="&#xf0;" 
d="M600 83l-55 -93l-68 32q-21 9 -51 4l-101 -17q-90 -15 -159 20t-102.5 100.5t-33.5 145.5q0 77 35 140.5t106.5 98.5t164.5 21l89 -13q36 -5 52 2l68 32l55 -91l-69 -35v-313zM411 130v285l-82 12q-89 13 -132 -31.5t-43 -120.5q0 -79 42.5 -124.5t132.5 -32.5z" />
    <glyph glyph-name="ntilde" unicode="&#xf1;" horiz-adv-x="760" 
d="M709 370q0 -171 -93.5 -274.5t-245.5 -103.5q-150 0 -242 104t-92 274q0 169 94 273.5t245 104.5q150 0 242 -104t92 -274zM577 370q0 119 -54.5 192t-152.5 73t-151 -72.5t-53 -192.5t55.5 -193.5t153.5 -73.5q97 0 149.5 72.5t52.5 194.5zM445 883q31 -12 24 -42
q-7 -27 -36 -33q-14 -3 -29 2l-166 51l51 85z" />
    <glyph glyph-name="ograve" unicode="&#xf2;" horiz-adv-x="666" 
d="M616 271q0 -132 -75.5 -208.5t-205.5 -76.5q-129 0 -205 75.5t-76 209.5v473h130v-473q0 -82 38 -126t113 -44q151 0 151 170v473h130v-473zM256 883q-31 -12 -24 -42q7 -27 36 -33q14 -3 29 2l166 51l-51 85z" />
    <glyph glyph-name="oacute" unicode="&#xf3;" horiz-adv-x="666" 
d="M616 271q0 -132 -75.5 -208.5t-205.5 -76.5q-129 0 -205 75.5t-76 209.5v473h130v-473q0 -82 38 -126t113 -44q151 0 151 170v473h130v-473zM528 868l-50 -68l-144 57l-144 -56l-49 68l194 91z" />
    <glyph glyph-name="ocircumflex" unicode="&#xf4;" horiz-adv-x="666" 
d="M616 271q0 -132 -75.5 -208.5t-205.5 -76.5q-129 0 -205 75.5t-76 209.5v473h130v-473q0 -82 38 -126t113 -44q151 0 151 170v473h130v-473zM405 883q31 -12 24 -42q-7 -27 -36 -33q-14 -3 -29 2l-166 51l51 85z" />
    <glyph glyph-name="otilde" unicode="&#xf5;" horiz-adv-x="226" 
d="M168 0h-107v544h107v-544z" />
    <glyph glyph-name="odieresis" unicode="&#xf6;" horiz-adv-x="531" 
d="M469 727l-50 -68l-144 57l-144 -56l-49 68l194 91z" />
    <glyph glyph-name="divide" unicode="&#xf7;" horiz-adv-x="531" 
d="M511 773l-40 -48q-32 -38 -85 -47t-110 18l-53 27q-32 16 -52 -8l-37 -42l-86 41l38 44q35 41 86.5 49t107.5 -19l54 -27q29 -14 52 9l40 43z" />
    <glyph glyph-name="oslash" unicode="&#xf8;" horiz-adv-x="531" 
d="M444 679h-354v65h354v-65z" />
    <glyph glyph-name="ugrave" unicode="&#xf9;" horiz-adv-x="531" 
d="M443 771q0 -48 -38.5 -78.5t-104.5 -30.5h-65q-67 0 -105 31t-38 78v29h102v-29q0 -13 11.5 -22t28.5 -9h67q17 0 28.5 9t11.5 22v29h102v-29z" />
    <glyph glyph-name="uacute" unicode="&#xfa;" horiz-adv-x="531" 
d="M331 697q0 -24 -17.5 -40t-47.5 -16t-47.5 16t-17.5 40t17.5 40t47.5 16t47.5 -16t17.5 -40z" />
    <glyph glyph-name="ucircumflex" unicode="&#xfb;" horiz-adv-x="531" 
d="M410 712q0 -47 -34 -75.5t-89 -28.5h-11q-53 0 -88 29.5t-35 74.5q0 46 34 74.5t89 28.5h11q56 0 89.5 -28.5t33.5 -74.5zM315 712q0 23 -28 23h-11q-13 0 -20.5 -6.5t-7.5 -16.5t8 -17t20 -7h11q28 0 28 24z" />
    <glyph glyph-name="udieresis" unicode="&#xfc;" horiz-adv-x="531" 
d="M375 -98q0 -37 -28 -61t-81 -24q-28 0 -46 5l-61 17l27 74l56 -13q18 -2 23 -2q2 0 8 -0.5t8 0t2 3.5q0 5 -2.5 6.5t-9 1t-13.5 -2t-19.5 -3t-23.5 -2.5l-17 27l48 86h90l-22 -43q61 -14 61 -69z" />
    <glyph glyph-name="yacute" unicode="&#xfd;" horiz-adv-x="531" 
d="M482 749l-167 -121l-69 58l150 131zM309 758l-167 -120l-70 56l151 132z" />
    <glyph glyph-name="thorn" unicode="&#xfe;" horiz-adv-x="531" 
d="M429 -158l-64 -15q-19 -9 -63 -9q-59 0 -96 22t-37 64q0 21 15.5 43.5t40.5 35.5l72 15l19 -38q-46 -23 -46 -45q0 -16 35 -16q6 0 36 6l60 12z" />
    <glyph glyph-name="ydieresis" unicode="&#xff;" horiz-adv-x="531" 
d="M469 740l-50 68l-144 -57l-144 56l-49 -68l194 -91z" />
    <glyph glyph-name="OE" unicode="&#x152;" horiz-adv-x="551" 
d="M485 539q0 -94 -56 -154.5t-148 -60.5t-147 60t-55 155q0 94 56 154t148 60t147 -60t55 -154zM371 539q0 50 -24 82.5t-66 32.5t-64.5 -32t-22.5 -83t23.5 -83.5t65.5 -32.5t65 32.5t23 83.5z" />
    <glyph glyph-name="oe" unicode="&#x153;" horiz-adv-x="762" 
d="M729 428q0 -100 -58 -182.5t-157 -113.5v-23h152v-109h-269v219q98 11 151 68t53 141q0 85 -62 145t-159 60t-157 -58t-60 -147q0 -84 51.5 -139.5t148.5 -68.5v-220h-269v109h152v23q-98 30 -154 110t-56 186q0 131 100 225t249 94q148 0 246 -94.5t98 -224.5z" />
    <glyph glyph-name="Scaron" unicode="&#x160;" horiz-adv-x="635" 
d="M582 -184h-119v817h-86v-817h-119v390q-110 8 -168.5 82.5t-58.5 186.5q0 119 66 194t192 75h293v-928z" />
    <glyph glyph-name="scaron" unicode="&#x161;" horiz-adv-x="933" 
d="M872 367q0 -162 -119.5 -277t-286.5 -115q-168 0 -287.5 114.5t-119.5 277.5t119 276.5t288 113.5q168 0 287 -112.5t119 -277.5zM698 154q-45 65 -52 94l-12 47q-11 42 -29 61l15 24q25 40 25 82q0 58 -39.5 89.5t-101.5 31.5h-198v-429h110v148h84q12 0 16 -6t7 -20
l16 -56q6 -21 16.5 -37.5t18.5 -22.5l7 -6h117zM758 367q0 119 -85 200.5t-207 81.5q-123 0 -208.5 -82t-85.5 -200q0 -117 86 -200t208 -83q121 0 206.5 83t85.5 200zM531 462q0 23 -34 23h-81v-82h92l13 23q10 19 10 36z" />
    <glyph glyph-name="Ydieresis" unicode="&#x178;" horiz-adv-x="957" 
d="M929 274q-2 -57 -57 -57h-345q11 -52 49.5 -81.5t89.5 -29.5q50 0 92 11l144 37l26 -112l-144 -35q-55 -13 -120 -13q-77 0 -137 35q-5 3 -9.5 4t-11 1t-9 -0.5t-12 -2.5t-11.5 -2l-174 -29q-120 -20 -192 29.5t-72 132.5q0 89 66 130.5t170 41.5h130v24q0 79 -90 79
q-45 0 -96 -12l-142 -34l-26 113l142 34q52 12 123 12q114 0 169 -68q73 70 183 70q121 0 193.5 -72t70.5 -206zM804 324q-6 53 -42 87t-98 34q-55 0 -91.5 -33.5t-45.5 -87.5h277zM429 130q-21 42 -28 98h-130q-55 0 -82.5 -13.5t-27.5 -47.5q0 -38 33.5 -54.5t91.5 -6.5z
" />
    <glyph glyph-name="Zcaron" unicode="&#x17d;" 
d="M592 744l-182 -307h140v-111h-191v-30h191v-111h-191v-185h-124v185h-193v111h193v30h-193v111h142l-184 307h143l156 -271l151 271h142z" />
    <glyph glyph-name="zcaron" unicode="&#x17e;" horiz-adv-x="664" 
d="M647 629h-114v-629h-130v629h-142v-629h-130v629h-114v115h630v-115z" />
    <glyph glyph-name="Euro" unicode="&#x20ac;" 
d="M558 692l-33 -115l-149 44q-36 10 -75 10q-137 0 -137 -102v-59l19 6l38 14l19 7q145 52 230 -12t85 -192v-257q0 -109 -68 -166t-190 -57q-60 0 -119 18l-138 42l34 115l145 -44q36 -10 76 -10q137 0 137 102v47l-19 -7l-38 -12l-19 -7q-146 -50 -230.5 14t-84.5 191
v267q0 109 68 166t190 57q59 0 118 -18zM432 202v90q0 47 -22.5 73t-58.5 27.5t-80 -10.5l-107 -32v-87q0 -48 22.5 -75t58 -29t79.5 10z" />
  </font>
</defs>
</svg>
